<?xml version="1.0" encoding="UTF-8" standalone="no"?>
<!DOCTYPE svg PUBLIC "-//W3C//DTD SVG 1.1//EN"
 "http://www.w3.org/Graphics/SVG/1.1/DTD/svg11.dtd">
<!-- Generated by graphviz version 2.43.0 (0)
 -->
<!-- Title: G Pages: 1 -->
<svg width="744pt" height="3622pt"
 viewBox="0.00 0.00 744.00 3622.00" xmlns="http://www.w3.org/2000/svg" xmlns:xlink="http://www.w3.org/1999/xlink">
<g id="graph0" class="graph" transform="scale(1 1) rotate(0) translate(4 3618)">
<title>G</title>
<polygon fill="white" stroke="transparent" points="-4,4 -4,-3618 740,-3618 740,4 -4,4"/>
<!-- UserIdentified -->
<g id="node1" class="node">
<title>UserIdentified</title>
<polygon fill="none" stroke="red" points="410,-2826 392,-2808 410,-2790 428,-2808 410,-2826"/>
</g>
<!-- CupsIdentified -->
<g id="node2" class="node">
<title>CupsIdentified</title>
<polygon fill="none" stroke="red" points="406,-2521 388,-2503 406,-2485 424,-2503 406,-2521"/>
</g>
<!-- UserIdentified&#45;&gt;CupsIdentified -->
<g id="startedByOldHolder" class="edge">
<title>UserIdentified&#45;&gt;CupsIdentified</title>
<path fill="none" stroke="black" d="M408.29,-2791.42C406.56,-2774.76 403.99,-2747.55 403,-2724 399.9,-2650.29 400.95,-2631.75 403,-2558 403.25,-2548.93 403.74,-2539 404.25,-2530.17"/>
<polygon fill="black" stroke="black" points="407.75,-2530.25 404.87,-2520.06 400.77,-2529.82 407.75,-2530.25"/>
<text text-anchor="middle" x="457" y="-2644.8" font-family="Times,serif" font-size="14.00">Indicado por</text>
<text text-anchor="middle" x="457" y="-2629.8" font-family="Times,serif" font-size="14.00">anterior titular</text>
</g>
<!-- CupsCode -->
<g id="node11" class="node">
<title>CupsCode</title>
<polygon fill="none" stroke="black" points="736,-2724 520,-2724 520,-2558 736,-2558 736,-2724"/>
<image xlink:href="shots/mdc-card.png" width="216px" height="144.419px" preserveAspectRatio="xMinYMin meet" x="520" y="-2702.42"/>
<text text-anchor="middle" x="628" y="-2712.8" font-family="Times,serif" font-size="14.00" fill="red">Código CUPS</text>
</g>
<!-- UserIdentified&#45;&gt;CupsCode -->
<g id="noStartedByOldHolder" class="edge">
<title>UserIdentified&#45;&gt;CupsCode</title>
<path fill="none" stroke="black" d="M419.93,-2799.48C437,-2786.56 473.74,-2758.76 511.67,-2730.05"/>
<polygon fill="black" stroke="black" points="513.91,-2732.74 519.77,-2723.92 509.68,-2727.16 513.91,-2732.74"/>
<text text-anchor="middle" x="550" y="-2760.8" font-family="Times,serif" font-size="14.00">No indicado por</text>
<text text-anchor="middle" x="550" y="-2745.8" font-family="Times,serif" font-size="14.00">anterior titular</text>
</g>
<!-- PersonalDataCompleted -->
<g id="node5" class="node">
<title>PersonalDataCompleted</title>
<polygon fill="none" stroke="red" points="402,-2231 384,-2213 402,-2195 420,-2213 402,-2231"/>
</g>
<!-- CupsIdentified&#45;&gt;PersonalDataCompleted -->
<g id="existingVat" class="edge">
<title>CupsIdentified&#45;&gt;PersonalDataCompleted</title>
<path fill="none" stroke="black" d="M404,-2486.91C402.28,-2473.15 399.94,-2452.25 399,-2434 395.22,-2360.32 396.95,-2341.75 399,-2268 399.25,-2258.93 399.74,-2249 400.25,-2240.17"/>
<polygon fill="black" stroke="black" points="403.75,-2240.25 400.87,-2230.06 396.77,-2239.82 403.75,-2240.25"/>
<text text-anchor="middle" x="448" y="-2347.3" font-family="Times,serif" font-size="14.00">NIF existente</text>
</g>
<!-- PersonalData -->
<g id="node10" class="node">
<title>PersonalData</title>
<polygon fill="none" stroke="black" points="722,-2434 506,-2434 506,-2268 722,-2268 722,-2434"/>
<image xlink:href="shots/mdc-card.png" width="216px" height="144.419px" preserveAspectRatio="xMinYMin meet" x="506" y="-2412.42"/>
<text text-anchor="middle" x="614" y="-2422.8" font-family="Times,serif" font-size="14.00" fill="red">Datos Personales</text>
</g>
<!-- CupsIdentified&#45;&gt;PersonalData -->
<g id="newVat2" class="edge">
<title>CupsIdentified&#45;&gt;PersonalData</title>
<path fill="none" stroke="black" d="M416.03,-2494.77C431.73,-2483.44 463.84,-2460.29 497.71,-2435.86"/>
<polygon fill="black" stroke="black" points="499.82,-2438.66 505.88,-2429.97 495.72,-2432.98 499.82,-2438.66"/>
<text text-anchor="middle" x="510.5" y="-2455.8" font-family="Times,serif" font-size="14.00">NIF nuevo</text>
</g>
<!-- MembershipSolved -->
<g id="node3" class="node">
<title>MembershipSolved</title>
<polygon fill="none" stroke="red" points="398,-1941 380,-1923 398,-1905 416,-1923 398,-1941"/>
</g>
<!-- CupsDataCompleted -->
<g id="node4" class="node">
<title>CupsDataCompleted</title>
<polygon fill="none" stroke="red" points="394,-1651 376,-1633 394,-1615 412,-1633 394,-1651"/>
</g>
<!-- MembershipSolved&#45;&gt;CupsDataCompleted -->
<g id="existingCups" class="edge">
<title>MembershipSolved&#45;&gt;CupsDataCompleted</title>
<path fill="none" stroke="black" d="M396,-1906.91C394.28,-1893.15 391.94,-1872.25 391,-1854 387.22,-1780.32 388.95,-1761.75 391,-1688 391.25,-1678.93 391.74,-1669 392.25,-1660.17"/>
<polygon fill="black" stroke="black" points="395.75,-1660.25 392.87,-1650.06 388.77,-1659.82 395.75,-1660.25"/>
<text text-anchor="middle" x="447.5" y="-1767.3" font-family="Times,serif" font-size="14.00">CUPS existente</text>
</g>
<!-- CupsData -->
<g id="node13" class="node">
<title>CupsData</title>
<polygon fill="none" stroke="black" points="729,-1854 513,-1854 513,-1688 729,-1688 729,-1854"/>
<image xlink:href="shots/mdc-card.png" width="216px" height="144.419px" preserveAspectRatio="xMinYMin meet" x="513" y="-1832.42"/>
<text text-anchor="middle" x="621" y="-1842.8" font-family="Times,serif" font-size="14.00" fill="red">Datos punto suministro</text>
</g>
<!-- MembershipSolved&#45;&gt;CupsData -->
<g id="newCups" class="edge">
<title>MembershipSolved&#45;&gt;CupsData</title>
<path fill="none" stroke="black" d="M408.46,-1914.97C426.42,-1902.88 465.05,-1876.9 504.51,-1850.36"/>
<polygon fill="black" stroke="black" points="506.59,-1853.18 512.93,-1844.69 502.68,-1847.37 506.59,-1853.18"/>
<text text-anchor="middle" x="515" y="-1875.8" font-family="Times,serif" font-size="14.00">CUPS nuevo</text>
</g>
<!-- HasSupply -->
<g id="node14" class="node">
<title>HasSupply</title>
<polygon fill="none" stroke="black" points="419,-1549 203,-1549 203,-1383 419,-1383 419,-1549"/>
<image xlink:href="shots/mdc-card.png" width="216px" height="144.419px" preserveAspectRatio="xMinYMin meet" x="203" y="-1527.42"/>
<text text-anchor="middle" x="311" y="-1537.8" font-family="Times,serif" font-size="14.00" fill="red">¿Tiene luz?</text>
</g>
<!-- CupsDataCompleted&#45;&gt;HasSupply -->
<g id="noActiveCups" class="edge">
<title>CupsDataCompleted&#45;&gt;HasSupply</title>
<path fill="none" stroke="black" d="M379.17,-1629.56C361.79,-1625.84 333.62,-1616.95 320,-1597 312.3,-1585.72 307.73,-1572.54 305.25,-1558.97"/>
<polygon fill="black" stroke="black" points="308.7,-1558.43 303.79,-1549.05 301.78,-1559.45 308.7,-1558.43"/>
<text text-anchor="middle" x="386.5" y="-1585.8" font-family="Times,serif" font-size="14.00">CUPS sin contrato</text>
<text text-anchor="middle" x="386.5" y="-1570.8" font-family="Times,serif" font-size="14.00">activo en Som</text>
</g>
<!-- SpecialCases -->
<g id="node17" class="node">
<title>SpecialCases</title>
<polygon fill="none" stroke="black" points="586,-1365 370,-1365 370,-1199 586,-1199 586,-1365"/>
<image xlink:href="shots/mdc-card.png" width="216px" height="144.419px" preserveAspectRatio="xMinYMin meet" x="370" y="-1343.42"/>
<text text-anchor="middle" x="478" y="-1353.8" font-family="Times,serif" font-size="14.00" fill="red">Casos especiales</text>
</g>
<!-- CupsDataCompleted&#45;&gt;SpecialCases -->
<g id="isActiveCups" class="edge">
<title>CupsDataCompleted&#45;&gt;SpecialCases</title>
<path fill="none" stroke="black" d="M407.38,-1628.11C421.36,-1623.28 442.67,-1613.58 453,-1597 494.07,-1531.12 497.28,-1441.74 491.98,-1375.19"/>
<polygon fill="black" stroke="black" points="495.46,-1374.79 491.11,-1365.13 488.49,-1375.4 495.46,-1374.79"/>
<text text-anchor="middle" x="535" y="-1585.8" font-family="Times,serif" font-size="14.00">CUPS con contrato</text>
<text text-anchor="middle" x="535" y="-1570.8" font-family="Times,serif" font-size="14.00">activo en Som</text>
</g>
<!-- PersonalDataCompleted&#45;&gt;MembershipSolved -->
<g id="isMember" class="edge">
<title>PersonalDataCompleted&#45;&gt;MembershipSolved</title>
<path fill="none" stroke="black" d="M400,-2196.91C398.28,-2183.15 395.94,-2162.25 395,-2144 391.22,-2070.32 392.95,-2051.75 395,-1978 395.25,-1968.93 395.74,-1959 396.25,-1950.17"/>
<polygon fill="black" stroke="black" points="399.75,-1950.25 396.87,-1940.06 392.77,-1949.82 399.75,-1950.25"/>
<text text-anchor="middle" x="424.5" y="-2057.3" font-family="Times,serif" font-size="14.00">Es socia</text>
</g>
<!-- BecomeMember -->
<g id="node12" class="node">
<title>BecomeMember</title>
<polygon fill="none" stroke="black" points="679,-2144 463,-2144 463,-1978 679,-1978 679,-2144"/>
<image xlink:href="shots/mdc-card.png" width="216px" height="144.419px" preserveAspectRatio="xMinYMin meet" x="463" y="-2122.42"/>
<text text-anchor="middle" x="571" y="-2132.8" font-family="Times,serif" font-size="14.00" fill="red">¿Quieres ser socia?</text>
</g>
<!-- PersonalDataCompleted&#45;&gt;BecomeMember -->
<g id="notMember" class="edge">
<title>PersonalDataCompleted&#45;&gt;BecomeMember</title>
<path fill="none" stroke="black" d="M411.09,-2203.94C423.2,-2193.18 446.01,-2172.94 470.67,-2151.05"/>
<polygon fill="black" stroke="black" points="473.22,-2153.46 478.38,-2144.21 468.58,-2148.23 473.22,-2153.46"/>
<text text-anchor="middle" x="497" y="-2165.8" font-family="Times,serif" font-size="14.00">No es socia</text>
</g>
<!-- Loading -->
<g id="node6" class="node">
<title>Loading</title>
<polygon fill="none" stroke="black" points="445,-3614 229,-3614 229,-3448 445,-3448 445,-3614"/>
<image xlink:href="shots/mdc-card.png" width="216px" height="144.419px" preserveAspectRatio="xMinYMin meet" x="229" y="-3592.42"/>
<text text-anchor="middle" x="337" y="-3602.8" font-family="Times,serif" font-size="14.00" fill="red">Cargando datos...</text>
</g>
<!-- WelcomeUser -->
<g id="node7" class="node">
<title>WelcomeUser</title>
<polygon fill="none" stroke="black" points="395,-3213 179,-3213 179,-3047 395,-3047 395,-3213"/>
<image xlink:href="shots/mdc-card.png" width="216px" height="144.419px" preserveAspectRatio="xMinYMin meet" x="179" y="-3191.42"/>
<text text-anchor="middle" x="287" y="-3201.8" font-family="Times,serif" font-size="14.00" fill="red">Bienvenida X</text>
</g>
<!-- Loading&#45;&gt;WelcomeUser -->
<g id="hasSession" class="edge">
<title>Loading&#45;&gt;WelcomeUser</title>
<path fill="none" stroke="black" d="M300.63,-3447.79C298.83,-3441.84 297.25,-3435.87 296,-3430 281.5,-3361.81 279.73,-3282.93 281.33,-3223.31"/>
<polygon fill="black" stroke="black" points="284.83,-3223.26 281.64,-3213.16 277.83,-3223.05 284.83,-3223.26"/>
<text text-anchor="middle" x="335" y="-3418.8" font-family="Times,serif" font-size="14.00">Con sesión</text>
</g>
<!-- Nif -->
<g id="node8" class="node">
<title>Nif</title>
<polygon fill="none" stroke="black" points="531,-3397 315,-3397 315,-3231 531,-3231 531,-3397"/>
<image xlink:href="shots/mdc-card.png" width="216px" height="144.419px" preserveAspectRatio="xMinYMin meet" x="315" y="-3375.42"/>
<text text-anchor="middle" x="423" y="-3385.8" font-family="Times,serif" font-size="14.00" fill="red">Preguntar NIF</text>
</g>
<!-- Loading&#45;&gt;Nif -->
<g id="noSession" class="edge">
<title>Loading&#45;&gt;Nif</title>
<path fill="none" stroke="black" d="M369.88,-3447.8C375.27,-3434.31 380.89,-3420.27 386.37,-3406.57"/>
<polygon fill="black" stroke="black" points="389.67,-3407.74 390.14,-3397.16 383.17,-3405.14 389.67,-3407.74"/>
<text text-anchor="middle" x="419.5" y="-3418.8" font-family="Times,serif" font-size="14.00">Sin sesión</text>
</g>
<!-- WelcomeUser&#45;&gt;UserIdentified -->
<g id="edge5" class="edge">
<title>WelcomeUser&#45;&gt;UserIdentified</title>
<path fill="none" stroke="black" d="M317.66,-3046.72C337.42,-2994.07 363.85,-2924.37 388,-2863 392.18,-2852.37 396.95,-2840.63 400.98,-2830.81"/>
<polygon fill="black" stroke="black" points="404.28,-2831.99 404.85,-2821.41 397.8,-2829.32 404.28,-2831.99"/>
</g>
<!-- Nif&#45;&gt;UserIdentified -->
<g id="newVat" class="edge">
<title>Nif&#45;&gt;UserIdentified</title>
<path fill="none" stroke="black" d="M420.88,-3230.9C417.89,-3114.96 412.58,-2909.2 410.69,-2835.88"/>
<polygon fill="black" stroke="black" points="414.19,-2835.57 410.43,-2825.66 407.19,-2835.75 414.19,-2835.57"/>
<text text-anchor="middle" x="452.5" y="-2942.3" font-family="Times,serif" font-size="14.00">NIF nuevo</text>
</g>
<!-- Password -->
<g id="node9" class="node">
<title>Password</title>
<polygon fill="none" stroke="black" points="719,-3029 503,-3029 503,-2863 719,-2863 719,-3029"/>
<image xlink:href="shots/mdc-card.png" width="216px" height="144.419px" preserveAspectRatio="xMinYMin meet" x="503" y="-3007.42"/>
<text text-anchor="middle" x="611" y="-3017.8" font-family="Times,serif" font-size="14.00" fill="red">Preguntar Contraseña</text>
</g>
<!-- Nif&#45;&gt;Password -->
<g id="existingVat" class="edge">
<title>Nif&#45;&gt;Password</title>
<path fill="none" stroke="black" d="M465.19,-3230.86C494.59,-3173.63 533.82,-3097.25 564.18,-3038.14"/>
<polygon fill="black" stroke="black" points="567.33,-3039.67 568.79,-3029.18 561.11,-3036.48 567.33,-3039.67"/>
<text text-anchor="middle" x="604" y="-3126.3" font-family="Times,serif" font-size="14.00">NIF existente</text>
</g>
<!-- Password&#45;&gt;UserIdentified -->
<g id="edge6" class="edge">
<title>Password&#45;&gt;UserIdentified</title>
<path fill="none" stroke="black" d="M502.85,-2871.82C474.31,-2852.52 446.6,-2833.77 428.99,-2821.85"/>
<polygon fill="black" stroke="black" points="430.56,-2818.68 420.31,-2815.98 426.63,-2824.48 430.56,-2818.68"/>
</g>
<!-- PersonalData&#45;&gt;PersonalDataCompleted -->
<g id="edge12" class="edge">
<title>PersonalData&#45;&gt;PersonalDataCompleted</title>
<path fill="none" stroke="black" d="M505.76,-2276.83C501.13,-2273.83 496.52,-2270.87 492,-2268 468.14,-2252.84 440.15,-2236.23 421.8,-2225.48"/>
<polygon fill="black" stroke="black" points="423.32,-2222.32 412.92,-2220.31 419.79,-2228.37 423.32,-2222.32"/>
</g>
<!-- CupsCode&#45;&gt;CupsIdentified -->
<g id="edge8" class="edge">
<title>CupsCode&#45;&gt;CupsIdentified</title>
<path fill="none" stroke="black" d="M519.92,-2566.57C515.24,-2563.64 510.59,-2560.77 506,-2558 479.15,-2541.78 447.08,-2524.88 426.63,-2514.4"/>
<polygon fill="black" stroke="black" points="428.1,-2511.22 417.6,-2509.8 424.92,-2517.46 428.1,-2511.22"/>
</g>
<!-- BecomeMember&#45;&gt;MembershipSolved -->
<g id="edge15" class="edge">
<title>BecomeMember&#45;&gt;MembershipSolved</title>
<path fill="none" stroke="black" d="M466.37,-1977.75C446.72,-1962.3 428.37,-1947.87 415.64,-1937.86"/>
<polygon fill="black" stroke="black" points="417.8,-1935.11 407.77,-1931.68 413.47,-1940.61 417.8,-1935.11"/>
</g>
<!-- CupsData&#45;&gt;CupsDataCompleted -->
<g id="edge18" class="edge">
<title>CupsData&#45;&gt;CupsDataCompleted</title>
<path fill="none" stroke="black" d="M512.99,-1696.45C508.29,-1693.55 503.61,-1690.72 499,-1688 470.66,-1671.26 436.56,-1654.28 415.08,-1643.94"/>
<polygon fill="black" stroke="black" points="416.43,-1640.71 405.89,-1639.56 413.41,-1647.02 416.43,-1640.71"/>
</g>
<!-- Technical -->
<g id="node15" class="node">
<title>Technical</title>
<polygon fill="none" stroke="black" points="216,-1181 0,-1181 0,-1015 216,-1015 216,-1181"/>
<image xlink:href="shots/mdc-card.png" width="216px" height="144.419px" preserveAspectRatio="xMinYMin meet" x="0" y="-1159.42"/>
<text text-anchor="middle" x="108" y="-1169.8" font-family="Times,serif" font-size="14.00" fill="red">Technical</text>
</g>
<!-- HasSupply&#45;&gt;Technical -->
<g id="noSupply" class="edge">
<title>HasSupply&#45;&gt;Technical</title>
<path fill="none" stroke="black" d="M257.68,-1382.95C254.01,-1376.91 250.41,-1370.88 247,-1365 213.9,-1307.91 179.53,-1242.21 153.25,-1190.38"/>
<polygon fill="black" stroke="black" points="156.24,-1188.55 148.61,-1181.2 150,-1191.71 156.24,-1188.55"/>
<text text-anchor="middle" x="271.5" y="-1278.3" font-family="Times,serif" font-size="14.00">Sin luz</text>
</g>
<!-- NewHolder -->
<g id="node16" class="node">
<title>NewHolder</title>
<polygon fill="none" stroke="black" points="450,-1181 234,-1181 234,-1015 450,-1015 450,-1181"/>
<image xlink:href="shots/mdc-card.png" width="216px" height="144.419px" preserveAspectRatio="xMinYMin meet" x="234" y="-1159.42"/>
<text text-anchor="middle" x="342" y="-1169.8" font-family="Times,serif" font-size="14.00" fill="red">¿Titular diferente?</text>
</g>
<!-- HasSupply&#45;&gt;NewHolder -->
<g id="hasSupply" class="edge">
<title>HasSupply&#45;&gt;NewHolder</title>
<path fill="none" stroke="black" d="M302.08,-1382.92C298.21,-1330.03 296.63,-1260.01 307,-1199 307.45,-1196.33 307.97,-1193.64 308.54,-1190.93"/>
<polygon fill="black" stroke="black" points="311.97,-1191.63 310.84,-1181.1 305.16,-1190.04 311.97,-1191.63"/>
<text text-anchor="middle" x="334" y="-1278.3" font-family="Times,serif" font-size="14.00">Con luz</text>
</g>
<!-- NoCutoff -->
<g id="node19" class="node">
<title>NoCutoff</title>
<polygon fill="none" stroke="black" points="450,-978 234,-978 234,-812 450,-812 450,-978"/>
<image xlink:href="shots/mdc-card.png" width="216px" height="144.419px" preserveAspectRatio="xMinYMin meet" x="234" y="-956.419"/>
<text text-anchor="middle" x="342" y="-966.8" font-family="Times,serif" font-size="14.00" fill="red">¿Eres electrodependiente?</text>
</g>
<!-- Technical&#45;&gt;NoCutoff -->
<g id="edge22" class="edge">
<title>Technical&#45;&gt;NoCutoff</title>
<path fill="none" stroke="black" d="M203.51,-1014.96C215.12,-1004.98 227.03,-994.76 238.74,-984.69"/>
<polygon fill="black" stroke="black" points="241.11,-987.28 246.41,-978.11 236.55,-981.97 241.11,-987.28"/>
</g>
<!-- NewHolder&#45;&gt;NoCutoff -->
<g id="edge24" class="edge">
<title>NewHolder&#45;&gt;NoCutoff</title>
<path fill="none" stroke="black" d="M342,-1014.96C342,-1006.12 342,-997.09 342,-988.15"/>
<polygon fill="black" stroke="black" points="345.5,-988.11 342,-978.11 338.5,-988.11 345.5,-988.11"/>
</g>
<!-- SpecialCases&#45;&gt;NoCutoff -->
<g id="edge25" class="edge">
<title>SpecialCases&#45;&gt;NoCutoff</title>
<path fill="none" stroke="black" d="M486.45,-1198.88C488.68,-1144.4 485.01,-1072.6 459,-1015 454.53,-1005.09 448.85,-995.54 442.42,-986.44"/>
<polygon fill="black" stroke="black" points="445.09,-984.16 436.32,-978.21 439.47,-988.33 445.09,-984.16"/>
</g>
<!-- Surrogation -->
<g id="node18" class="node">
<title>Surrogation</title>
<polygon fill="none" stroke="black" points="679,-3614 463,-3614 463,-3448 679,-3448 679,-3614"/>
<image xlink:href="shots/mdc-card.png" width="216px" height="144.419px" preserveAspectRatio="xMinYMin meet" x="463" y="-3592.42"/>
<text text-anchor="middle" x="571" y="-3602.8" font-family="Times,serif" font-size="14.00" fill="red">¿Por surrogación?</text>
</g>
<!-- VoluntaryCent -->
<g id="node20" class="node">
<title>VoluntaryCent</title>
<polygon fill="none" stroke="black" points="450,-775 234,-775 234,-609 450,-609 450,-775"/>
<image xlink:href="shots/mdc-card.png" width="216px" height="144.419px" preserveAspectRatio="xMinYMin meet" x="234" y="-753.419"/>
<text text-anchor="middle" x="342" y="-763.8" font-family="Times,serif" font-size="14.00" fill="red">¿Céntimo voluntario?</text>
</g>
<!-- NoCutoff&#45;&gt;VoluntaryCent -->
<g id="edge26" class="edge">
<title>NoCutoff&#45;&gt;VoluntaryCent</title>
<path fill="none" stroke="black" d="M342,-811.96C342,-803.12 342,-794.09 342,-785.15"/>
<polygon fill="black" stroke="black" points="345.5,-785.11 342,-775.11 338.5,-785.11 345.5,-785.11"/>
</g>
<!-- Payment -->
<g id="node21" class="node">
<title>Payment</title>
<polygon fill="none" stroke="black" points="450,-572 234,-572 234,-406 450,-406 450,-572"/>
<image xlink:href="shots/mdc-card.png" width="216px" height="144.419px" preserveAspectRatio="xMinYMin meet" x="234" y="-550.419"/>
<text text-anchor="middle" x="342" y="-560.8" font-family="Times,serif" font-size="14.00" fill="red">Datos de pago</text>
</g>
<!-- VoluntaryCent&#45;&gt;Payment -->
<g id="edge27" class="edge">
<title>VoluntaryCent&#45;&gt;Payment</title>
<path fill="none" stroke="black" d="M342,-608.96C342,-600.12 342,-591.09 342,-582.15"/>
<polygon fill="black" stroke="black" points="345.5,-582.11 342,-572.11 338.5,-582.11 345.5,-582.11"/>
</g>
<!-- Summary -->
<g id="node22" class="node">
<title>Summary</title>
<polygon fill="none" stroke="black" points="450,-369 234,-369 234,-203 450,-203 450,-369"/>
<image xlink:href="shots/mdc-card.png" width="216px" height="144.419px" preserveAspectRatio="xMinYMin meet" x="234" y="-347.419"/>
<text text-anchor="middle" x="342" y="-357.8" font-family="Times,serif" font-size="14.00" fill="red">Resum y signatura</text>
</g>
<!-- Payment&#45;&gt;Summary -->
<g id="edge28" class="edge">
<title>Payment&#45;&gt;Summary</title>
<path fill="none" stroke="black" d="M342,-405.96C342,-397.12 342,-388.09 342,-379.15"/>
<polygon fill="black" stroke="black" points="345.5,-379.11 342,-369.11 338.5,-379.11 345.5,-379.11"/>
</g>
<!-- Error -->
<g id="node23" class="node">
<title>Error</title>
<polygon fill="none" stroke="black" points="333,-166 117,-166 117,0 333,0 333,-166"/>
<image xlink:href="shots/mdc-card.png" width="216px" height="144.419px" preserveAspectRatio="xMinYMin meet" x="117" y="-144.419"/>
<text text-anchor="middle" x="225" y="-154.8" font-family="Times,serif" font-size="14.00" fill="red">Error</text>
</g>
<!-- Summary&#45;&gt;Error -->
<g id="edge29" class="edge">
<title>Summary&#45;&gt;Error</title>
<path fill="none" stroke="black" d="M294.24,-202.96C288.88,-193.74 283.39,-184.31 277.97,-175"/>
<polygon fill="black" stroke="black" points="280.85,-172.99 272.79,-166.11 274.8,-176.51 280.85,-172.99"/>
</g>
<!-- Success -->
<g id="node24" class="node">
<title>Success</title>
<polygon fill="none" stroke="black" points="567,-166 351,-166 351,0 567,0 567,-166"/>
<image xlink:href="shots/mdc-card.png" width="216px" height="144.419px" preserveAspectRatio="xMinYMin meet" x="351" y="-144.419"/>
<text text-anchor="middle" x="459" y="-154.8" font-family="Times,serif" font-size="14.00" fill="red">¡Felicidades!</text>
</g>
<!-- Summary&#45;&gt;Success -->
<g id="edge30" class="edge">
<title>Summary&#45;&gt;Success</title>
<path fill="none" stroke="black" d="M389.76,-202.96C395.12,-193.74 400.61,-184.31 406.03,-175"/>
<polygon fill="black" stroke="black" points="409.2,-176.51 411.21,-166.11 403.15,-172.99 409.2,-176.51"/>
</g>
</g>
</svg>
