<?xml version="1.0" encoding="UTF-8" standalone="no"?>
<!DOCTYPE svg PUBLIC "-//W3C//DTD SVG 1.1//EN"
 "http://www.w3.org/Graphics/SVG/1.1/DTD/svg11.dtd">
<!-- Generated by graphviz version 2.40.1 (20161225.0304)
 -->
<!-- Title: G Pages: 1 -->
<svg width="568pt" height="1581pt"
 viewBox="0.00 0.00 568.42 1580.95" xmlns="http://www.w3.org/2000/svg" xmlns:xlink="http://www.w3.org/1999/xlink">
<g id="graph0" class="graph" transform="scale(1 1) rotate(0) translate(4 1576.9533)">
<title>G</title>
<polygon fill="#ffffff" stroke="transparent" points="-4,4 -4,-1576.9533 564.4237,-1576.9533 564.4237,4 -4,4"/>
<!-- UserIdentified -->
<g id="node1" class="node">
<title>UserIdentified</title>
<polygon fill="none" stroke="#ff0000" points="296.832,-1304.9533 269.832,-1286.9533 296.832,-1268.9533 323.832,-1286.9533 296.832,-1304.9533"/>
</g>
<!-- CupsIdentified -->
<g id="node2" class="node">
<title>CupsIdentified</title>
<polygon fill="none" stroke="#ff0000" points="292.832,-1129.9533 265.832,-1111.9533 292.832,-1093.9533 319.832,-1111.9533 292.832,-1129.9533"/>
</g>
<!-- UserIdentified&#45;&gt;CupsIdentified -->
<g id="startedByOldHolder" class="edge">
<title>UserIdentified&#45;&gt;CupsIdentified</title>
<path fill="none" stroke="#000000" d="M294.9951,-1269.9259C293.2651,-1252.9744 290.799,-1226.2011 289.832,-1202.9533 289.1671,-1186.9671 289.3961,-1182.9474 289.832,-1166.9533 290.0765,-1157.9826 290.5448,-1148.1979 291.0401,-1139.4016"/>
<polygon fill="#000000" stroke="#000000" points="294.5419,-1139.4741 291.6443,-1129.2832 287.5544,-1139.0568 294.5419,-1139.4741"/>
<text text-anchor="middle" x="329.332" y="-1188.7533" font-family="Times,serif" font-size="14.00" fill="#000000">Iniciado por</text>
<text text-anchor="middle" x="329.332" y="-1173.7533" font-family="Times,serif" font-size="14.00" fill="#000000">anterior titular</text>
</g>
<!-- CupsCode -->
<g id="node11" class="node">
<title>CupsCode</title>
<ellipse fill="none" stroke="#000000" cx="438.832" cy="-1184.9533" rx="61.1893" ry="18"/>
<text text-anchor="middle" x="438.832" y="-1181.2533" font-family="Times,serif" font-size="14.00" fill="#000000">Código CUPS</text>
</g>
<!-- UserIdentified&#45;&gt;CupsCode -->
<g id="noStartedByOldHolder" class="edge">
<title>UserIdentified&#45;&gt;CupsCode</title>
<path fill="none" stroke="#000000" d="M309.9365,-1277.5402C331.902,-1261.7622 376.7425,-1229.5528 407.2952,-1207.6065"/>
<polygon fill="#000000" stroke="#000000" points="409.4229,-1210.3876 415.5029,-1201.7109 405.3391,-1204.7022 409.4229,-1210.3876"/>
<text text-anchor="middle" x="426.832" y="-1239.7533" font-family="Times,serif" font-size="14.00" fill="#000000">No iniciado por</text>
<text text-anchor="middle" x="426.832" y="-1224.7533" font-family="Times,serif" font-size="14.00" fill="#000000">anterior titular</text>
</g>
<!-- PersonalDataCompleted -->
<g id="node5" class="node">
<title>PersonalDataCompleted</title>
<polygon fill="none" stroke="#ff0000" points="288.832,-969.9533 261.832,-951.9533 288.832,-933.9533 315.832,-951.9533 288.832,-969.9533"/>
</g>
<!-- CupsIdentified&#45;&gt;PersonalDataCompleted -->
<g id="existingVat" class="edge">
<title>CupsIdentified&#45;&gt;PersonalDataCompleted</title>
<path fill="none" stroke="#000000" d="M290.6607,-1095.2579C288.9611,-1081.3058 286.7385,-1060.871 285.832,-1042.9533 285.0235,-1026.9738 285.3961,-1022.9474 285.832,-1006.9533 286.0765,-997.9826 286.5448,-988.1979 287.0401,-979.4016"/>
<polygon fill="#000000" stroke="#000000" points="290.5419,-979.4741 287.6443,-969.2832 283.5544,-979.0568 290.5419,-979.4741"/>
<text text-anchor="middle" x="322.832" y="-1021.2533" font-family="Times,serif" font-size="14.00" fill="#000000">NIF existente</text>
</g>
<!-- PersonalData -->
<g id="node10" class="node">
<title>PersonalData</title>
<ellipse fill="none" stroke="#000000" cx="439.832" cy="-1024.9533" rx="71.4873" ry="18"/>
<text text-anchor="middle" x="439.832" y="-1021.2533" font-family="Times,serif" font-size="14.00" fill="#000000">Datos Personales</text>
</g>
<!-- CupsIdentified&#45;&gt;PersonalData -->
<g id="newVat2" class="edge">
<title>CupsIdentified&#45;&gt;PersonalData</title>
<path fill="none" stroke="#000000" d="M307.1946,-1103.453C329.1563,-1090.4553 371.7966,-1065.2192 402.8183,-1046.8594"/>
<polygon fill="#000000" stroke="#000000" points="404.8112,-1049.747 411.6343,-1041.6417 401.2459,-1043.723 404.8112,-1049.747"/>
<text text-anchor="middle" x="404.332" y="-1064.7533" font-family="Times,serif" font-size="14.00" fill="#000000">NIF nuevo</text>
</g>
<!-- MembershipSolved -->
<g id="node3" class="node">
<title>MembershipSolved</title>
<polygon fill="none" stroke="#ff0000" points="284.832,-809.9533 257.832,-791.9533 284.832,-773.9533 311.832,-791.9533 284.832,-809.9533"/>
</g>
<!-- CupsDataCompleted -->
<g id="node4" class="node">
<title>CupsDataCompleted</title>
<polygon fill="none" stroke="#ff0000" points="280.832,-649.9533 253.832,-631.9533 280.832,-613.9533 307.832,-631.9533 280.832,-649.9533"/>
</g>
<!-- MembershipSolved&#45;&gt;CupsDataCompleted -->
<g id="existingCups" class="edge">
<title>MembershipSolved&#45;&gt;CupsDataCompleted</title>
<path fill="none" stroke="#000000" d="M282.6607,-775.2579C280.9611,-761.3058 278.7385,-740.871 277.832,-722.9533 277.0235,-706.9738 277.3961,-702.9474 277.832,-686.9533 278.0765,-677.9826 278.5448,-668.1979 279.0401,-659.4016"/>
<polygon fill="#000000" stroke="#000000" points="282.5419,-659.4741 279.6443,-649.2832 275.5544,-659.0568 282.5419,-659.4741"/>
<text text-anchor="middle" x="320.832" y="-701.2533" font-family="Times,serif" font-size="14.00" fill="#000000">CUPS existente</text>
</g>
<!-- CupsData -->
<g id="node13" class="node">
<title>CupsData</title>
<ellipse fill="none" stroke="#000000" cx="466.832" cy="-704.9533" rx="93.6835" ry="18"/>
<text text-anchor="middle" x="466.832" y="-701.2533" font-family="Times,serif" font-size="14.00" fill="#000000">Datos punto suministro</text>
</g>
<!-- MembershipSolved&#45;&gt;CupsData -->
<g id="newCups" class="edge">
<title>MembershipSolved&#45;&gt;CupsData</title>
<path fill="none" stroke="#000000" d="M300.6649,-784.3848C327.5667,-771.5252 383.1143,-744.9722 422.5708,-726.1111"/>
<polygon fill="#000000" stroke="#000000" points="424.2144,-729.2049 431.7271,-721.7342 421.1954,-722.8893 424.2144,-729.2049"/>
<text text-anchor="middle" x="421.332" y="-744.7533" font-family="Times,serif" font-size="14.00" fill="#000000">CUPS nuevo</text>
</g>
<!-- HasSupply -->
<g id="node14" class="node">
<title>HasSupply</title>
<ellipse fill="none" stroke="#000000" cx="218.832" cy="-529.9533" rx="51.9908" ry="18"/>
<text text-anchor="middle" x="218.832" y="-526.2533" font-family="Times,serif" font-size="14.00" fill="#000000">¿Tiene luz?</text>
</g>
<!-- CupsDataCompleted&#45;&gt;HasSupply -->
<g id="noActiveCups" class="edge">
<title>CupsDataCompleted&#45;&gt;HasSupply</title>
<path fill="none" stroke="#000000" d="M262.0126,-626.4321C247.6793,-621.133 228.914,-611.5828 219.832,-595.9533 213.3305,-584.7647 212.37,-570.6051 213.3273,-558.2724"/>
<polygon fill="#000000" stroke="#000000" points="216.8405,-558.3745 214.5712,-548.0256 209.8915,-557.5309 216.8405,-558.3745"/>
<text text-anchor="middle" x="270.832" y="-584.7533" font-family="Times,serif" font-size="14.00" fill="#000000">CUPS sin contrato</text>
<text text-anchor="middle" x="270.832" y="-569.7533" font-family="Times,serif" font-size="14.00" fill="#000000">activo en Som</text>
</g>
<!-- Surrogation -->
<g id="node17" class="node">
<title>Surrogation</title>
<ellipse fill="none" stroke="#000000" cx="343.832" cy="-475.9533" rx="74.9875" ry="18"/>
<text text-anchor="middle" x="343.832" y="-472.2533" font-family="Times,serif" font-size="14.00" fill="#000000">¿Por surrogación?</text>
</g>
<!-- CupsDataCompleted&#45;&gt;Surrogation -->
<g id="isActiveCups" class="edge">
<title>CupsDataCompleted&#45;&gt;Surrogation</title>
<path fill="none" stroke="#000000" d="M295.2243,-623.0259C304.3039,-616.6198 315.4781,-607.1601 321.832,-595.9533 337.9197,-567.5786 342.6132,-529.9169 343.7993,-504.4098"/>
<polygon fill="#000000" stroke="#000000" points="347.3016,-504.3894 344.116,-494.2849 340.305,-504.1706 347.3016,-504.3894"/>
<text text-anchor="middle" x="386.832" y="-584.7533" font-family="Times,serif" font-size="14.00" fill="#000000">CUPS con contrato</text>
<text text-anchor="middle" x="386.832" y="-569.7533" font-family="Times,serif" font-size="14.00" fill="#000000">activo en Som</text>
</g>
<!-- PersonalDataCompleted&#45;&gt;MembershipSolved -->
<g id="isMember" class="edge">
<title>PersonalDataCompleted&#45;&gt;MembershipSolved</title>
<path fill="none" stroke="#000000" d="M286.6607,-935.2579C284.9611,-921.3058 282.7385,-900.871 281.832,-882.9533 281.0235,-866.9738 281.3961,-862.9474 281.832,-846.9533 282.0765,-837.9826 282.5448,-828.1979 283.0401,-819.4016"/>
<polygon fill="#000000" stroke="#000000" points="286.5419,-819.4741 283.6443,-809.2832 279.5544,-819.0568 286.5419,-819.4741"/>
<text text-anchor="middle" x="304.832" y="-861.2533" font-family="Times,serif" font-size="14.00" fill="#000000">Es socia</text>
</g>
<!-- BecomeMember -->
<g id="node12" class="node">
<title>BecomeMember</title>
<ellipse fill="none" stroke="#000000" cx="415.832" cy="-864.9533" rx="79.0865" ry="18"/>
<text text-anchor="middle" x="415.832" y="-861.2533" font-family="Times,serif" font-size="14.00" fill="#000000">¿Quieres ser socia?</text>
</g>
<!-- PersonalDataCompleted&#45;&gt;BecomeMember -->
<g id="notMember" class="edge">
<title>PersonalDataCompleted&#45;&gt;BecomeMember</title>
<path fill="none" stroke="#000000" d="M302.4232,-942.6428C321.2801,-929.7251 355.9994,-905.941 382.0748,-888.0783"/>
<polygon fill="#000000" stroke="#000000" points="384.2792,-890.8108 390.551,-882.2718 380.3231,-885.0358 384.2792,-890.8108"/>
<text text-anchor="middle" x="391.832" y="-904.7533" font-family="Times,serif" font-size="14.00" fill="#000000">No es socia</text>
</g>
<!-- Loading -->
<g id="node6" class="node">
<title>Loading</title>
<ellipse fill="none" stroke="#000000" cx="245.832" cy="-1554.9533" rx="73.387" ry="18"/>
<text text-anchor="middle" x="245.832" y="-1551.2533" font-family="Times,serif" font-size="14.00" fill="#000000">Cargando datos...</text>
</g>
<!-- WelcomeUser -->
<g id="node7" class="node">
<title>WelcomeUser</title>
<ellipse fill="none" stroke="#000000" cx="200.832" cy="-1413.9533" rx="81.4863" ry="18"/>
<text text-anchor="middle" x="200.832" y="-1410.2533" font-family="Times,serif" font-size="14.00" fill="#000000">Bienvenida Usuario</text>
</g>
<!-- Loading&#45;&gt;WelcomeUser -->
<g id="hasSession" class="edge">
<title>Loading&#45;&gt;WelcomeUser</title>
<path fill="none" stroke="#000000" d="M219.1367,-1537.8968C213.0238,-1532.612 207.3072,-1526.2335 203.832,-1518.9533 192.3547,-1494.9097 193.0001,-1464.1126 195.6697,-1442.1006"/>
<polygon fill="#000000" stroke="#000000" points="199.1534,-1442.4622 197.0986,-1432.0685 192.2234,-1441.4751 199.1534,-1442.4622"/>
<text text-anchor="middle" x="234.332" y="-1507.7533" font-family="Times,serif" font-size="14.00" fill="#000000">Con sesión</text>
</g>
<!-- Nif -->
<g id="node8" class="node">
<title>Nif</title>
<ellipse fill="none" stroke="#000000" cx="296.832" cy="-1467.9533" rx="61.99" ry="18"/>
<text text-anchor="middle" x="296.832" y="-1464.2533" font-family="Times,serif" font-size="14.00" fill="#000000">Preguntar NIF</text>
</g>
<!-- Loading&#45;&gt;Nif -->
<g id="noSession" class="edge">
<title>Loading&#45;&gt;Nif</title>
<path fill="none" stroke="#000000" d="M257.5339,-1537.1539C261.2301,-1531.3963 265.2757,-1524.9497 268.832,-1518.9533 273.3742,-1511.2944 278.1085,-1502.8626 282.3639,-1495.0984"/>
<polygon fill="#000000" stroke="#000000" points="285.5777,-1496.5142 287.2719,-1486.0557 279.4255,-1493.175 285.5777,-1496.5142"/>
<text text-anchor="middle" x="304.832" y="-1507.7533" font-family="Times,serif" font-size="14.00" fill="#000000">Sin sesión</text>
</g>
<!-- WelcomeUser&#45;&gt;UserIdentified -->
<g id="edge5" class="edge">
<title>WelcomeUser&#45;&gt;UserIdentified</title>
<path fill="none" stroke="#000000" d="M214.3828,-1396.0267C232.0589,-1372.6427 262.9082,-1331.8316 281.4454,-1307.3085"/>
<polygon fill="#000000" stroke="#000000" points="284.4325,-1309.161 287.6706,-1299.0731 278.8484,-1304.9399 284.4325,-1309.161"/>
</g>
<!-- Nif&#45;&gt;UserIdentified -->
<g id="newVat" class="edge">
<title>Nif&#45;&gt;UserIdentified</title>
<path fill="none" stroke="#000000" d="M296.832,-1449.9366C296.832,-1418.441 296.832,-1353.1442 296.832,-1315.4594"/>
<polygon fill="#000000" stroke="#000000" points="300.3321,-1315.1657 296.832,-1305.1658 293.3321,-1315.1658 300.3321,-1315.1657"/>
<text text-anchor="middle" x="326.332" y="-1356.2533" font-family="Times,serif" font-size="14.00" fill="#000000">NIF nuevo</text>
</g>
<!-- Password -->
<g id="node9" class="node">
<title>Password</title>
<ellipse fill="none" stroke="#000000" cx="460.832" cy="-1359.9533" rx="87.1846" ry="18"/>
<text text-anchor="middle" x="460.832" y="-1356.2533" font-family="Times,serif" font-size="14.00" fill="#000000">Preguntar Contraseña</text>
</g>
<!-- Nif&#45;&gt;Password -->
<g id="existingVat" class="edge">
<title>Nif&#45;&gt;Password</title>
<path fill="none" stroke="#000000" d="M322.0976,-1451.315C350.0214,-1432.9262 395.1616,-1403.1997 426.3294,-1382.6745"/>
<polygon fill="#000000" stroke="#000000" points="428.2972,-1385.5695 434.7239,-1377.1464 424.4472,-1379.7233 428.2972,-1385.5695"/>
<text text-anchor="middle" x="439.832" y="-1410.2533" font-family="Times,serif" font-size="14.00" fill="#000000">NIF existente</text>
</g>
<!-- Password&#45;&gt;UserIdentified -->
<g id="edge6" class="edge">
<title>Password&#45;&gt;UserIdentified</title>
<path fill="none" stroke="#000000" d="M424.0272,-1343.5707C393.0749,-1329.7931 349.6286,-1310.4542 322.3675,-1298.3197"/>
<polygon fill="#000000" stroke="#000000" points="323.6685,-1295.0678 313.1094,-1294.1987 320.8219,-1301.4629 323.6685,-1295.0678"/>
</g>
<!-- PersonalData&#45;&gt;PersonalDataCompleted -->
<g id="edge12" class="edge">
<title>PersonalData&#45;&gt;PersonalDataCompleted</title>
<path fill="none" stroke="#000000" d="M406.6944,-1008.9332C378.7969,-995.4463 339.4902,-976.4437 314.0849,-964.1617"/>
<polygon fill="#000000" stroke="#000000" points="315.2883,-960.856 304.7618,-959.6545 312.2415,-967.1581 315.2883,-960.856"/>
</g>
<!-- CupsCode&#45;&gt;CupsIdentified -->
<g id="edge8" class="edge">
<title>CupsCode&#45;&gt;CupsIdentified</title>
<path fill="none" stroke="#000000" d="M407.5113,-1169.293C380.5865,-1155.8306 342.2854,-1136.68 317.4941,-1124.2844"/>
<polygon fill="#000000" stroke="#000000" points="318.9034,-1121.0759 308.3939,-1119.7343 315.7729,-1127.3369 318.9034,-1121.0759"/>
</g>
<!-- BecomeMember&#45;&gt;MembershipSolved -->
<g id="edge15" class="edge">
<title>BecomeMember&#45;&gt;MembershipSolved</title>
<path fill="none" stroke="#000000" d="M385.778,-848.2056C362.3528,-835.1519 330.2719,-817.2748 308.6141,-805.2059"/>
<polygon fill="#000000" stroke="#000000" points="310.1848,-802.0745 299.7458,-800.264 306.7773,-808.1892 310.1848,-802.0745"/>
</g>
<!-- CupsData&#45;&gt;CupsDataCompleted -->
<g id="edge18" class="edge">
<title>CupsData&#45;&gt;CupsDataCompleted</title>
<path fill="none" stroke="#000000" d="M425.5526,-688.7523C389.5903,-674.638 338.499,-654.586 307.6255,-642.469"/>
<polygon fill="#000000" stroke="#000000" points="308.5689,-639.0795 297.9815,-638.684 306.0115,-645.5956 308.5689,-639.0795"/>
</g>
<!-- Technical -->
<g id="node15" class="node">
<title>Technical</title>
<ellipse fill="none" stroke="#000000" cx="72.832" cy="-402.4767" rx="72.6644" ry="37.4533"/>
<text text-anchor="middle" x="72.832" y="-413.7767" font-family="Times,serif" font-size="14.00" fill="#000000">Potencia</text>
<text text-anchor="middle" x="72.832" y="-398.7767" font-family="Times,serif" font-size="14.00" fill="#000000">Tarifa</text>
<text text-anchor="middle" x="72.832" y="-383.7767" font-family="Times,serif" font-size="14.00" fill="#000000">Documentación</text>
</g>
<!-- HasSupply&#45;&gt;Technical -->
<g id="noSupply" class="edge">
<title>HasSupply&#45;&gt;Technical</title>
<path fill="none" stroke="#000000" d="M197.028,-513.4406C189.2842,-507.432 180.5721,-500.5056 172.832,-493.9533 153.6767,-477.7377 133.1235,-459.1541 115.6627,-442.991"/>
<polygon fill="#000000" stroke="#000000" points="117.5816,-439.9962 107.8739,-435.7522 112.8162,-445.1237 117.5816,-439.9962"/>
<text text-anchor="middle" x="192.332" y="-472.2533" font-family="Times,serif" font-size="14.00" fill="#000000">Sin luz</text>
</g>
<!-- NewHolder -->
<g id="node16" class="node">
<title>NewHolder</title>
<ellipse fill="none" stroke="#000000" cx="239.832" cy="-402.4767" rx="76.0865" ry="18"/>
<text text-anchor="middle" x="239.832" y="-398.7767" font-family="Times,serif" font-size="14.00" fill="#000000">¿Titular diferente?</text>
</g>
<!-- HasSupply&#45;&gt;NewHolder -->
<g id="hasSupply" class="edge">
<title>HasSupply&#45;&gt;NewHolder</title>
<path fill="none" stroke="#000000" d="M217.618,-511.6474C217.295,-505.9784 216.9918,-499.71 216.832,-493.9533 216.3881,-477.9595 213.708,-473.6454 216.832,-457.9533 218.7252,-448.4435 222.2783,-438.5217 226.0353,-429.7423"/>
<polygon fill="#000000" stroke="#000000" points="229.331,-430.9501 230.2863,-420.3984 222.9594,-428.0513 229.331,-430.9501"/>
<text text-anchor="middle" x="238.332" y="-472.2533" font-family="Times,serif" font-size="14.00" fill="#000000">Con luz</text>
</g>
<!-- NoCutoff -->
<g id="node24" class="node">
<title>NoCutoff</title>
<ellipse fill="none" stroke="#000000" cx="239.832" cy="-310" rx="44.393" ry="18"/>
<text text-anchor="middle" x="239.832" y="-306.3" font-family="Times,serif" font-size="14.00" fill="#000000">NoCutoff</text>
</g>
<!-- Technical&#45;&gt;NoCutoff -->
<g id="edge22" class="edge">
<title>Technical&#45;&gt;NoCutoff</title>
<path fill="none" stroke="#000000" d="M122.4854,-374.981C148.798,-360.4103 180.5083,-342.8506 204.3284,-329.6602"/>
<polygon fill="#000000" stroke="#000000" points="206.3133,-332.5619 213.366,-324.6556 202.9222,-326.4381 206.3133,-332.5619"/>
</g>
<!-- NewHolder&#45;&gt;NoCutoff -->
<g id="edge24" class="edge">
<title>NewHolder&#45;&gt;NoCutoff</title>
<path fill="none" stroke="#000000" d="M239.832,-384.2062C239.832,-371.1603 239.832,-353.3564 239.832,-338.4578"/>
<polygon fill="#000000" stroke="#000000" points="243.3321,-338.2324 239.832,-328.2325 236.3321,-338.2325 243.3321,-338.2324"/>
</g>
<!-- Surrogation&#45;&gt;NoCutoff -->
<g id="edge25" class="edge">
<title>Surrogation&#45;&gt;NoCutoff</title>
<path fill="none" stroke="#000000" d="M344.9953,-457.8322C345.6034,-434.4431 343.5541,-393.3871 324.832,-365 314.2347,-348.932 297.1502,-336.5466 281.0675,-327.6334"/>
<polygon fill="#000000" stroke="#000000" points="282.2559,-324.3058 271.7707,-322.7851 279.019,-330.5125 282.2559,-324.3058"/>
</g>
<!-- SwitchDate -->
<g id="node18" class="node">
<title>SwitchDate</title>
<ellipse fill="none" stroke="#000000" cx="443.832" cy="-1554.9533" rx="106.6812" ry="18"/>
<text text-anchor="middle" x="443.832" y="-1551.2533" font-family="Times,serif" font-size="14.00" fill="#000000">¿Quieres fecha de cambio?</text>
</g>
<!-- VoluntaryCent -->
<g id="node19" class="node">
<title>VoluntaryCent</title>
<ellipse fill="none" stroke="#000000" cx="239.832" cy="-237" rx="87.9851" ry="18"/>
<text text-anchor="middle" x="239.832" y="-233.3" font-family="Times,serif" font-size="14.00" fill="#000000">¿Céntimo voluntario?</text>
</g>
<!-- Payment -->
<g id="node20" class="node">
<title>Payment</title>
<ellipse fill="none" stroke="#000000" cx="239.832" cy="-164" rx="61.99" ry="18"/>
<text text-anchor="middle" x="239.832" y="-160.3" font-family="Times,serif" font-size="14.00" fill="#000000">Datos de pago</text>
</g>
<!-- VoluntaryCent&#45;&gt;Payment -->
<g id="edge27" class="edge">
<title>VoluntaryCent&#45;&gt;Payment</title>
<path fill="none" stroke="#000000" d="M239.832,-218.9551C239.832,-210.8828 239.832,-201.1764 239.832,-192.1817"/>
<polygon fill="#000000" stroke="#000000" points="243.3321,-192.0903 239.832,-182.0904 236.3321,-192.0904 243.3321,-192.0903"/>
</g>
<!-- Summary -->
<g id="node21" class="node">
<title>Summary</title>
<ellipse fill="none" stroke="#000000" cx="239.832" cy="-91" rx="77.1866" ry="18"/>
<text text-anchor="middle" x="239.832" y="-87.3" font-family="Times,serif" font-size="14.00" fill="#000000">Resum y signatura</text>
</g>
<!-- Payment&#45;&gt;Summary -->
<g id="edge28" class="edge">
<title>Payment&#45;&gt;Summary</title>
<path fill="none" stroke="#000000" d="M239.832,-145.9551C239.832,-137.8828 239.832,-128.1764 239.832,-119.1817"/>
<polygon fill="#000000" stroke="#000000" points="243.3321,-119.0903 239.832,-109.0904 236.3321,-119.0904 243.3321,-119.0903"/>
</g>
<!-- Error -->
<g id="node22" class="node">
<title>Error</title>
<ellipse fill="none" stroke="#000000" cx="187.832" cy="-18" rx="29.4969" ry="18"/>
<text text-anchor="middle" x="187.832" y="-14.3" font-family="Times,serif" font-size="14.00" fill="#000000">Error</text>
</g>
<!-- Summary&#45;&gt;Error -->
<g id="edge29" class="edge">
<title>Summary&#45;&gt;Error</title>
<path fill="none" stroke="#000000" d="M226.9781,-72.9551C220.5579,-63.9421 212.6864,-52.8918 205.6899,-43.0697"/>
<polygon fill="#000000" stroke="#000000" points="208.4777,-40.9507 199.8251,-34.8365 202.7763,-45.012 208.4777,-40.9507"/>
</g>
<!-- Success -->
<g id="node23" class="node">
<title>Success</title>
<ellipse fill="none" stroke="#000000" cx="291.832" cy="-18" rx="56.59" ry="18"/>
<text text-anchor="middle" x="291.832" y="-14.3" font-family="Times,serif" font-size="14.00" fill="#000000">¡Felicidades!</text>
</g>
<!-- Summary&#45;&gt;Success -->
<g id="edge30" class="edge">
<title>Summary&#45;&gt;Success</title>
<path fill="none" stroke="#000000" d="M252.6859,-72.9551C258.9031,-64.2271 266.4812,-53.5886 273.3079,-44.005"/>
<polygon fill="#000000" stroke="#000000" points="276.3542,-45.761 279.3054,-35.5855 270.6528,-41.6997 276.3542,-45.761"/>
</g>
<!-- NoCutoff&#45;&gt;VoluntaryCent -->
<g id="edge26" class="edge">
<title>NoCutoff&#45;&gt;VoluntaryCent</title>
<path fill="none" stroke="#000000" d="M239.832,-291.9551C239.832,-283.8828 239.832,-274.1764 239.832,-265.1817"/>
<polygon fill="#000000" stroke="#000000" points="243.3321,-265.0903 239.832,-255.0904 236.3321,-265.0904 243.3321,-265.0903"/>
</g>
</g>
</svg>
