<?xml version="1.0" encoding="UTF-8" standalone="no"?>
<!DOCTYPE svg PUBLIC "-//W3C//DTD SVG 1.1//EN"
 "http://www.w3.org/Graphics/SVG/1.1/DTD/svg11.dtd">
<!-- Generated by graphviz version 2.40.1 (20161225.0304)
 -->
<!-- Title: G Pages: 1 -->
<svg width="529pt" height="1537pt"
 viewBox="0.00 0.00 529.42 1536.95" xmlns="http://www.w3.org/2000/svg" xmlns:xlink="http://www.w3.org/1999/xlink">
<g id="graph0" class="graph" transform="scale(1 1) rotate(0) translate(4 1532.9533)">
<title>G</title>
<polygon fill="#ffffff" stroke="transparent" points="-4,4 -4,-1532.9533 525.4237,-1532.9533 525.4237,4 -4,4"/>
<!-- UserIdentified -->
<g id="node1" class="node">
<title>UserIdentified</title>
<polygon fill="none" stroke="#ff0000" points="253.832,-1260.9533 226.832,-1242.9533 253.832,-1224.9533 280.832,-1242.9533 253.832,-1260.9533"/>
</g>
<!-- CupsIdentified -->
<g id="node2" class="node">
<title>CupsIdentified</title>
<polygon fill="none" stroke="#ff0000" points="249.832,-1085.9533 222.832,-1067.9533 249.832,-1049.9533 276.832,-1067.9533 249.832,-1085.9533"/>
</g>
<!-- UserIdentified&#45;&gt;CupsIdentified -->
<g id="startedByOldHolder" class="edge">
<title>UserIdentified&#45;&gt;CupsIdentified</title>
<path fill="none" stroke="#000000" d="M251.9951,-1225.9259C250.2651,-1208.9744 247.799,-1182.2011 246.832,-1158.9533 246.1671,-1142.9671 246.3961,-1138.9474 246.832,-1122.9533 247.0765,-1113.9826 247.5448,-1104.1979 248.0401,-1095.4016"/>
<polygon fill="#000000" stroke="#000000" points="251.5419,-1095.4741 248.6443,-1085.2832 244.5544,-1095.0568 251.5419,-1095.4741"/>
<text text-anchor="middle" x="286.332" y="-1144.7533" font-family="Times,serif" font-size="14.00" fill="#000000">Iniciado por</text>
<text text-anchor="middle" x="286.332" y="-1129.7533" font-family="Times,serif" font-size="14.00" fill="#000000">anterior titular</text>
</g>
<!-- CupsCode -->
<g id="node10" class="node">
<title>CupsCode</title>
<ellipse fill="none" stroke="#000000" cx="395.832" cy="-1140.9533" rx="61.1893" ry="18"/>
<text text-anchor="middle" x="395.832" y="-1137.2533" font-family="Times,serif" font-size="14.00" fill="#000000">Código CUPS</text>
</g>
<!-- UserIdentified&#45;&gt;CupsCode -->
<g id="noStartedByOldHolder" class="edge">
<title>UserIdentified&#45;&gt;CupsCode</title>
<path fill="none" stroke="#000000" d="M266.9365,-1233.5402C288.902,-1217.7622 333.7425,-1185.5528 364.2952,-1163.6065"/>
<polygon fill="#000000" stroke="#000000" points="366.4229,-1166.3876 372.5029,-1157.7109 362.3391,-1160.7022 366.4229,-1166.3876"/>
<text text-anchor="middle" x="383.832" y="-1195.7533" font-family="Times,serif" font-size="14.00" fill="#000000">No iniciado por</text>
<text text-anchor="middle" x="383.832" y="-1180.7533" font-family="Times,serif" font-size="14.00" fill="#000000">anterior titular</text>
</g>
<!-- MembershipSolved -->
<g id="node3" class="node">
<title>MembershipSolved</title>
<polygon fill="none" stroke="#ff0000" points="245.832,-925.9533 218.832,-907.9533 245.832,-889.9533 272.832,-907.9533 245.832,-925.9533"/>
</g>
<!-- CupsIdentified&#45;&gt;MembershipSolved -->
<g id="isMember" class="edge">
<title>CupsIdentified&#45;&gt;MembershipSolved</title>
<path fill="none" stroke="#000000" d="M247.6607,-1051.2579C245.9611,-1037.3058 243.7385,-1016.871 242.832,-998.9533 242.0235,-982.9738 242.3961,-978.9474 242.832,-962.9533 243.0765,-953.9826 243.5448,-944.1979 244.0401,-935.4016"/>
<polygon fill="#000000" stroke="#000000" points="247.5419,-935.4741 244.6443,-925.2832 240.5544,-935.0568 247.5419,-935.4741"/>
<text text-anchor="middle" x="265.832" y="-977.2533" font-family="Times,serif" font-size="14.00" fill="#000000">Es socia</text>
</g>
<!-- BecomeMember -->
<g id="node11" class="node">
<title>BecomeMember</title>
<ellipse fill="none" stroke="#000000" cx="376.832" cy="-980.9533" rx="79.0865" ry="18"/>
<text text-anchor="middle" x="376.832" y="-977.2533" font-family="Times,serif" font-size="14.00" fill="#000000">¿Quieres ser socia?</text>
</g>
<!-- CupsIdentified&#45;&gt;BecomeMember -->
<g id="notMember" class="edge">
<title>CupsIdentified&#45;&gt;BecomeMember</title>
<path fill="none" stroke="#000000" d="M263.4232,-1058.6428C282.2801,-1045.7251 316.9994,-1021.941 343.0748,-1004.0783"/>
<polygon fill="#000000" stroke="#000000" points="345.2792,-1006.8108 351.551,-998.2718 341.3231,-1001.0358 345.2792,-1006.8108"/>
<text text-anchor="middle" x="352.832" y="-1020.7533" font-family="Times,serif" font-size="14.00" fill="#000000">No es socia</text>
</g>
<!-- CupsDataCompleted -->
<g id="node4" class="node">
<title>CupsDataCompleted</title>
<polygon fill="none" stroke="#ff0000" points="241.832,-765.9533 214.832,-747.9533 241.832,-729.9533 268.832,-747.9533 241.832,-765.9533"/>
</g>
<!-- MembershipSolved&#45;&gt;CupsDataCompleted -->
<g id="existingCups" class="edge">
<title>MembershipSolved&#45;&gt;CupsDataCompleted</title>
<path fill="none" stroke="#000000" d="M243.6607,-891.2579C241.9611,-877.3058 239.7385,-856.871 238.832,-838.9533 238.0235,-822.9738 238.3961,-818.9474 238.832,-802.9533 239.0765,-793.9826 239.5448,-784.1979 240.0401,-775.4016"/>
<polygon fill="#000000" stroke="#000000" points="243.5419,-775.4741 240.6443,-765.2832 236.5544,-775.0568 243.5419,-775.4741"/>
<text text-anchor="middle" x="281.832" y="-817.2533" font-family="Times,serif" font-size="14.00" fill="#000000">CUPS existente</text>
</g>
<!-- CupsData -->
<g id="node12" class="node">
<title>CupsData</title>
<ellipse fill="none" stroke="#000000" cx="427.832" cy="-820.9533" rx="93.6835" ry="18"/>
<text text-anchor="middle" x="427.832" y="-817.2533" font-family="Times,serif" font-size="14.00" fill="#000000">Datos punto suministro</text>
</g>
<!-- MembershipSolved&#45;&gt;CupsData -->
<g id="newCups" class="edge">
<title>MembershipSolved&#45;&gt;CupsData</title>
<path fill="none" stroke="#000000" d="M261.6649,-900.3848C288.5667,-887.5252 344.1143,-860.9722 383.5708,-842.1111"/>
<polygon fill="#000000" stroke="#000000" points="385.2144,-845.2049 392.7271,-837.7342 382.1954,-838.8893 385.2144,-845.2049"/>
<text text-anchor="middle" x="382.332" y="-860.7533" font-family="Times,serif" font-size="14.00" fill="#000000">CUPS nuevo</text>
</g>
<!-- HasSupply -->
<g id="node13" class="node">
<title>HasSupply</title>
<ellipse fill="none" stroke="#000000" cx="182.832" cy="-645.9533" rx="51.9908" ry="18"/>
<text text-anchor="middle" x="182.832" y="-642.2533" font-family="Times,serif" font-size="14.00" fill="#000000">¿Tiene luz?</text>
</g>
<!-- CupsDataCompleted&#45;&gt;HasSupply -->
<g id="noActiveCups" class="edge">
<title>CupsDataCompleted&#45;&gt;HasSupply</title>
<path fill="none" stroke="#000000" d="M224.0939,-741.7095C211.0497,-736.0971 194.1946,-726.4766 185.832,-711.9533 179.3688,-700.7288 178.0238,-686.5649 178.5392,-674.2388"/>
<polygon fill="#000000" stroke="#000000" points="182.0497,-674.2552 179.3891,-663.9999 175.0737,-673.676 182.0497,-674.2552"/>
<text text-anchor="middle" x="236.832" y="-700.7533" font-family="Times,serif" font-size="14.00" fill="#000000">CUPS sin contrato</text>
<text text-anchor="middle" x="236.832" y="-685.7533" font-family="Times,serif" font-size="14.00" fill="#000000">activo en Som</text>
</g>
<!-- Surrogation -->
<g id="node16" class="node">
<title>Surrogation</title>
<ellipse fill="none" stroke="#000000" cx="295.832" cy="-397" rx="74.9875" ry="18"/>
<text text-anchor="middle" x="295.832" y="-393.3" font-family="Times,serif" font-size="14.00" fill="#000000">¿Por surrogación?</text>
</g>
<!-- CupsDataCompleted&#45;&gt;Surrogation -->
<g id="isActiveCups" class="edge">
<title>CupsDataCompleted&#45;&gt;Surrogation</title>
<path fill="none" stroke="#000000" d="M257.6772,-740.2895C268.2927,-734.214 281.4519,-724.6365 287.832,-711.9533 336.0781,-616.0434 315.0436,-482.054 302.605,-424.7618"/>
<polygon fill="#000000" stroke="#000000" points="306.0141,-423.9689 300.4011,-414.9831 299.1854,-425.5079 306.0141,-423.9689"/>
<text text-anchor="middle" x="369.832" y="-598.7533" font-family="Times,serif" font-size="14.00" fill="#000000">CUPS con contrato</text>
<text text-anchor="middle" x="369.832" y="-583.7533" font-family="Times,serif" font-size="14.00" fill="#000000">activo en Som</text>
</g>
<!-- Loading -->
<g id="node5" class="node">
<title>Loading</title>
<ellipse fill="none" stroke="#000000" cx="198.832" cy="-1510.9533" rx="73.387" ry="18"/>
<text text-anchor="middle" x="198.832" y="-1507.2533" font-family="Times,serif" font-size="14.00" fill="#000000">Cargando datos...</text>
</g>
<!-- WelcomeUser -->
<g id="node6" class="node">
<title>WelcomeUser</title>
<ellipse fill="none" stroke="#000000" cx="144.832" cy="-1369.9533" rx="81.4863" ry="18"/>
<text text-anchor="middle" x="144.832" y="-1366.2533" font-family="Times,serif" font-size="14.00" fill="#000000">Bienvenida Usuario</text>
</g>
<!-- Loading&#45;&gt;WelcomeUser -->
<g id="hasSession" class="edge">
<title>Loading&#45;&gt;WelcomeUser</title>
<path fill="none" stroke="#000000" d="M172.9898,-1494.063C166.7147,-1488.705 160.7043,-1482.2485 156.832,-1474.9533 144.2646,-1451.2769 142.133,-1420.428 142.6191,-1398.3037"/>
<polygon fill="#000000" stroke="#000000" points="146.1201,-1398.3485 143.0338,-1388.2132 139.126,-1398.061 146.1201,-1398.3485"/>
<text text-anchor="middle" x="187.332" y="-1463.7533" font-family="Times,serif" font-size="14.00" fill="#000000">Con sesión</text>
</g>
<!-- Nif -->
<g id="node7" class="node">
<title>Nif</title>
<ellipse fill="none" stroke="#000000" cx="253.832" cy="-1423.9533" rx="61.99" ry="18"/>
<text text-anchor="middle" x="253.832" y="-1420.2533" font-family="Times,serif" font-size="14.00" fill="#000000">Preguntar NIF</text>
</g>
<!-- Loading&#45;&gt;Nif -->
<g id="noSession" class="edge">
<title>Loading&#45;&gt;Nif</title>
<path fill="none" stroke="#000000" d="M210.3259,-1493.0264C214.0109,-1487.262 218.1025,-1480.8436 221.832,-1474.9533 226.8697,-1466.9968 232.3249,-1458.3239 237.2798,-1450.4245"/>
<polygon fill="#000000" stroke="#000000" points="240.2688,-1452.246 242.6126,-1441.9137 234.337,-1448.5292 240.2688,-1452.246"/>
<text text-anchor="middle" x="258.832" y="-1463.7533" font-family="Times,serif" font-size="14.00" fill="#000000">Sin sesión</text>
</g>
<!-- WelcomeUser&#45;&gt;UserIdentified -->
<g id="edge5" class="edge">
<title>WelcomeUser&#45;&gt;UserIdentified</title>
<path fill="none" stroke="#000000" d="M144.0132,-1351.7698C144.2036,-1336.1528 146.6992,-1313.7276 157.832,-1297.9533 174.064,-1274.9539 203.1733,-1260.2626 225.0963,-1251.9046"/>
<polygon fill="#000000" stroke="#000000" points="226.3575,-1255.1706 234.5912,-1248.503 223.9966,-1248.5808 226.3575,-1255.1706"/>
</g>
<!-- Password -->
<g id="node8" class="node">
<title>Password</title>
<ellipse fill="none" stroke="#000000" cx="253.832" cy="-1315.9533" rx="87.1846" ry="18"/>
<text text-anchor="middle" x="253.832" y="-1312.2533" font-family="Times,serif" font-size="14.00" fill="#000000">Preguntar Contraseña</text>
</g>
<!-- Nif&#45;&gt;Password -->
<g id="existingVat" class="edge">
<title>Nif&#45;&gt;Password</title>
<path fill="none" stroke="#000000" d="M253.832,-1405.6326C253.832,-1388.7743 253.832,-1363.5184 253.832,-1344.1003"/>
<polygon fill="#000000" stroke="#000000" points="257.3321,-1344.0034 253.832,-1334.0035 250.3321,-1344.0035 257.3321,-1344.0034"/>
<text text-anchor="middle" x="290.832" y="-1366.2533" font-family="Times,serif" font-size="14.00" fill="#000000">NIF existente</text>
</g>
<!-- PersonalData -->
<g id="node9" class="node">
<title>PersonalData</title>
<ellipse fill="none" stroke="#000000" cx="430.832" cy="-1315.9533" rx="71.4873" ry="18"/>
<text text-anchor="middle" x="430.832" y="-1312.2533" font-family="Times,serif" font-size="14.00" fill="#000000">Datos Personales</text>
</g>
<!-- Nif&#45;&gt;PersonalData -->
<g id="newVat" class="edge">
<title>Nif&#45;&gt;PersonalData</title>
<path fill="none" stroke="#000000" d="M289.5231,-1409.2518C303.0723,-1403.2159 318.4537,-1395.8027 331.832,-1387.9533 356.4216,-1373.5259 382.4253,-1354.4482 401.6089,-1339.5555"/>
<polygon fill="#000000" stroke="#000000" points="403.9426,-1342.1732 409.6506,-1333.2475 399.6222,-1336.6655 403.9426,-1342.1732"/>
<text text-anchor="middle" x="413.332" y="-1366.2533" font-family="Times,serif" font-size="14.00" fill="#000000">NIF nuevo</text>
</g>
<!-- Password&#45;&gt;UserIdentified -->
<g id="edge7" class="edge">
<title>Password&#45;&gt;UserIdentified</title>
<path fill="none" stroke="#000000" d="M253.832,-1297.9084C253.832,-1289.8362 253.832,-1280.1297 253.832,-1271.1351"/>
<polygon fill="#000000" stroke="#000000" points="257.3321,-1271.0436 253.832,-1261.0437 250.3321,-1271.0437 257.3321,-1271.0436"/>
</g>
<!-- PersonalData&#45;&gt;UserIdentified -->
<g id="edge6" class="edge">
<title>PersonalData&#45;&gt;UserIdentified</title>
<path fill="none" stroke="#000000" d="M393.2949,-1300.4719C359.379,-1286.484 310.3152,-1266.2487 280.3316,-1253.8825"/>
<polygon fill="#000000" stroke="#000000" points="281.5233,-1250.5881 270.9442,-1250.0109 278.8543,-1257.0593 281.5233,-1250.5881"/>
</g>
<!-- CupsCode&#45;&gt;CupsIdentified -->
<g id="edge9" class="edge">
<title>CupsCode&#45;&gt;CupsIdentified</title>
<path fill="none" stroke="#000000" d="M364.5113,-1125.293C337.5865,-1111.8306 299.2854,-1092.68 274.4941,-1080.2844"/>
<polygon fill="#000000" stroke="#000000" points="275.9034,-1077.0759 265.3939,-1075.7343 272.7729,-1083.3369 275.9034,-1077.0759"/>
</g>
<!-- BecomeMember&#45;&gt;MembershipSolved -->
<g id="edge13" class="edge">
<title>BecomeMember&#45;&gt;MembershipSolved</title>
<path fill="none" stroke="#000000" d="M346.778,-964.2056C323.3528,-951.1519 291.2719,-933.2748 269.6141,-921.2059"/>
<polygon fill="#000000" stroke="#000000" points="271.1848,-918.0745 260.7458,-916.264 267.7773,-924.1892 271.1848,-918.0745"/>
</g>
<!-- CupsData&#45;&gt;CupsDataCompleted -->
<g id="edge16" class="edge">
<title>CupsData&#45;&gt;CupsDataCompleted</title>
<path fill="none" stroke="#000000" d="M386.5526,-804.7523C350.5903,-790.638 299.499,-770.586 268.6255,-758.469"/>
<polygon fill="#000000" stroke="#000000" points="269.5689,-755.0795 258.9815,-754.684 267.0115,-761.5956 269.5689,-755.0795"/>
</g>
<!-- Technical -->
<g id="node14" class="node">
<title>Technical</title>
<ellipse fill="none" stroke="#000000" cx="72.832" cy="-470.4767" rx="72.6644" ry="37.4533"/>
<text text-anchor="middle" x="72.832" y="-481.7767" font-family="Times,serif" font-size="14.00" fill="#000000">Potencia</text>
<text text-anchor="middle" x="72.832" y="-466.7767" font-family="Times,serif" font-size="14.00" fill="#000000">Tarifa</text>
<text text-anchor="middle" x="72.832" y="-451.7767" font-family="Times,serif" font-size="14.00" fill="#000000">Documentación</text>
</g>
<!-- HasSupply&#45;&gt;Technical -->
<g id="noSupply" class="edge">
<title>HasSupply&#45;&gt;Technical</title>
<path fill="none" stroke="#000000" d="M159.918,-629.6829C140.2779,-614.4613 112.8496,-589.9192 97.832,-561.9533 90.5542,-548.4005 85.2586,-532.5546 81.4677,-517.8951"/>
<polygon fill="#000000" stroke="#000000" points="84.8234,-516.8801 79.0779,-507.9784 78.0182,-518.5201 84.8234,-516.8801"/>
<text text-anchor="middle" x="155.332" y="-591.2533" font-family="Times,serif" font-size="14.00" fill="#000000">Sin luz</text>
</g>
<!-- NewHolder -->
<g id="node15" class="node">
<title>NewHolder</title>
<ellipse fill="none" stroke="#000000" cx="182.832" cy="-543.9533" rx="76.0865" ry="18"/>
<text text-anchor="middle" x="182.832" y="-540.2533" font-family="Times,serif" font-size="14.00" fill="#000000">¿Titular diferente?</text>
</g>
<!-- HasSupply&#45;&gt;NewHolder -->
<g id="hasSupply" class="edge">
<title>HasSupply&#45;&gt;NewHolder</title>
<path fill="none" stroke="#000000" d="M182.832,-627.7178C182.832,-612.2703 182.832,-589.8682 182.832,-572.1173"/>
<polygon fill="#000000" stroke="#000000" points="186.3321,-572.031 182.832,-562.031 179.3321,-572.031 186.3321,-572.031"/>
<text text-anchor="middle" x="204.332" y="-591.2533" font-family="Times,serif" font-size="14.00" fill="#000000">Con luz</text>
</g>
<!-- VoluntaryCent -->
<g id="node18" class="node">
<title>VoluntaryCent</title>
<ellipse fill="none" stroke="#000000" cx="160.832" cy="-237" rx="87.9851" ry="18"/>
<text text-anchor="middle" x="160.832" y="-233.3" font-family="Times,serif" font-size="14.00" fill="#000000">¿Céntimo voluntario?</text>
</g>
<!-- Technical&#45;&gt;VoluntaryCent -->
<g id="edge20" class="edge">
<title>Technical&#45;&gt;VoluntaryCent</title>
<path fill="none" stroke="#000000" d="M86.6069,-433.3007C101.3661,-393.567 125.5461,-328.7527 146.832,-273 147.8635,-270.2983 148.9448,-267.4852 150.0297,-264.6749"/>
<polygon fill="#000000" stroke="#000000" points="153.3139,-265.8862 153.666,-255.2972 146.7874,-263.3555 153.3139,-265.8862"/>
</g>
<!-- NewHolder&#45;&gt;Surrogation -->
<g id="newHolder" class="edge">
<title>NewHolder&#45;&gt;Surrogation</title>
<path fill="none" stroke="#000000" d="M179.3675,-525.6531C175.9328,-501.6922 173.828,-459.6172 194.832,-433 200.451,-425.8794 216.4283,-418.9632 234.0633,-413.1276"/>
<polygon fill="#000000" stroke="#000000" points="235.4911,-416.3473 243.9758,-410.0023 233.3862,-409.6713 235.4911,-416.3473"/>
<text text-anchor="middle" x="241.332" y="-466.7767" font-family="Times,serif" font-size="14.00" fill="#000000">Cambia el titular</text>
</g>
<!-- NewHolder&#45;&gt;VoluntaryCent -->
<g id="sameHolder" class="edge">
<title>NewHolder&#45;&gt;VoluntaryCent</title>
<path fill="none" stroke="#000000" d="M178.1661,-525.7458C176.882,-520.0808 175.6256,-513.7899 174.832,-507.9533 162.884,-420.0845 160.9377,-314.9186 160.7443,-265.4164"/>
<polygon fill="#000000" stroke="#000000" points="164.244,-265.1655 160.7269,-255.1715 157.244,-265.1775 164.244,-265.1655"/>
<text text-anchor="middle" x="201.832" y="-349.8" font-family="Times,serif" font-size="14.00" fill="#000000">Mismo titular</text>
</g>
<!-- SwitchDate -->
<g id="node17" class="node">
<title>SwitchDate</title>
<ellipse fill="none" stroke="#000000" cx="295.832" cy="-310" rx="106.6812" ry="18"/>
<text text-anchor="middle" x="295.832" y="-306.3" font-family="Times,serif" font-size="14.00" fill="#000000">¿Quieres fecha de cambio?</text>
</g>
<!-- Surrogation&#45;&gt;SwitchDate -->
<g id="edge24" class="edge">
<title>Surrogation&#45;&gt;SwitchDate</title>
<path fill="none" stroke="#000000" d="M295.832,-378.9735C295.832,-367.1918 295.832,-351.5607 295.832,-338.1581"/>
<polygon fill="#000000" stroke="#000000" points="299.3321,-338.0033 295.832,-328.0034 292.3321,-338.0034 299.3321,-338.0033"/>
</g>
<!-- SwitchDate&#45;&gt;VoluntaryCent -->
<g id="edge25" class="edge">
<title>SwitchDate&#45;&gt;VoluntaryCent</title>
<path fill="none" stroke="#000000" d="M263.8389,-292.7C245.0417,-282.5356 221.1089,-269.5942 201.0442,-258.7444"/>
<polygon fill="#000000" stroke="#000000" points="202.5909,-255.6018 192.1298,-253.924 199.2613,-261.7593 202.5909,-255.6018"/>
</g>
<!-- Payment -->
<g id="node19" class="node">
<title>Payment</title>
<ellipse fill="none" stroke="#000000" cx="160.832" cy="-164" rx="61.99" ry="18"/>
<text text-anchor="middle" x="160.832" y="-160.3" font-family="Times,serif" font-size="14.00" fill="#000000">Datos de pago</text>
</g>
<!-- VoluntaryCent&#45;&gt;Payment -->
<g id="edge26" class="edge">
<title>VoluntaryCent&#45;&gt;Payment</title>
<path fill="none" stroke="#000000" d="M160.832,-218.9551C160.832,-210.8828 160.832,-201.1764 160.832,-192.1817"/>
<polygon fill="#000000" stroke="#000000" points="164.3321,-192.0903 160.832,-182.0904 157.3321,-192.0904 164.3321,-192.0903"/>
</g>
<!-- Summary -->
<g id="node20" class="node">
<title>Summary</title>
<ellipse fill="none" stroke="#000000" cx="160.832" cy="-91" rx="77.1866" ry="18"/>
<text text-anchor="middle" x="160.832" y="-87.3" font-family="Times,serif" font-size="14.00" fill="#000000">Resum y signatura</text>
</g>
<!-- Payment&#45;&gt;Summary -->
<g id="edge27" class="edge">
<title>Payment&#45;&gt;Summary</title>
<path fill="none" stroke="#000000" d="M160.832,-145.9551C160.832,-137.8828 160.832,-128.1764 160.832,-119.1817"/>
<polygon fill="#000000" stroke="#000000" points="164.3321,-119.0903 160.832,-109.0904 157.3321,-119.0904 164.3321,-119.0903"/>
</g>
<!-- Error -->
<g id="node21" class="node">
<title>Error</title>
<ellipse fill="none" stroke="#000000" cx="108.832" cy="-18" rx="29.4969" ry="18"/>
<text text-anchor="middle" x="108.832" y="-14.3" font-family="Times,serif" font-size="14.00" fill="#000000">Error</text>
</g>
<!-- Summary&#45;&gt;Error -->
<g id="edge28" class="edge">
<title>Summary&#45;&gt;Error</title>
<path fill="none" stroke="#000000" d="M147.9781,-72.9551C141.5579,-63.9421 133.6864,-52.8918 126.6899,-43.0697"/>
<polygon fill="#000000" stroke="#000000" points="129.4777,-40.9507 120.8251,-34.8365 123.7763,-45.012 129.4777,-40.9507"/>
</g>
<!-- Success -->
<g id="node22" class="node">
<title>Success</title>
<ellipse fill="none" stroke="#000000" cx="212.832" cy="-18" rx="56.59" ry="18"/>
<text text-anchor="middle" x="212.832" y="-14.3" font-family="Times,serif" font-size="14.00" fill="#000000">¡Felicidades!</text>
</g>
<!-- Summary&#45;&gt;Success -->
<g id="edge29" class="edge">
<title>Summary&#45;&gt;Success</title>
<path fill="none" stroke="#000000" d="M173.6859,-72.9551C179.9031,-64.2271 187.4812,-53.5886 194.3079,-44.005"/>
<polygon fill="#000000" stroke="#000000" points="197.3542,-45.761 200.3054,-35.5855 191.6528,-41.6997 197.3542,-45.761"/>
</g>
</g>
</svg>
