<?xml version="1.0" encoding="UTF-8" standalone="no"?>
<!DOCTYPE svg PUBLIC "-//W3C//DTD SVG 1.1//EN"
 "http://www.w3.org/Graphics/SVG/1.1/DTD/svg11.dtd">
<!-- Generated by graphviz version 2.40.1 (20161225.0304)
 -->
<!-- Title: G Pages: 1 -->
<svg width="599pt" height="1487pt"
 viewBox="0.00 0.00 599.42 1486.95" xmlns="http://www.w3.org/2000/svg" xmlns:xlink="http://www.w3.org/1999/xlink">
<g id="graph0" class="graph" transform="scale(1 1) rotate(0) translate(4 1482.9533)">
<title>G</title>
<polygon fill="#ffffff" stroke="transparent" points="-4,4 -4,-1482.9533 595.4237,-1482.9533 595.4237,4 -4,4"/>
<!-- UserIdentified -->
<g id="node1" class="node">
<title>UserIdentified</title>
<polygon fill="none" stroke="#ff0000" points="327.832,-1210.9533 300.832,-1192.9533 327.832,-1174.9533 354.832,-1192.9533 327.832,-1210.9533"/>
</g>
<!-- CupsIdentified -->
<g id="node2" class="node">
<title>CupsIdentified</title>
<polygon fill="none" stroke="#ff0000" points="323.832,-1035.9533 296.832,-1017.9533 323.832,-999.9533 350.832,-1017.9533 323.832,-1035.9533"/>
</g>
<!-- UserIdentified&#45;&gt;CupsIdentified -->
<g id="startedByOldHolder" class="edge">
<title>UserIdentified&#45;&gt;CupsIdentified</title>
<path fill="none" stroke="#000000" d="M325.9951,-1175.9259C324.2651,-1158.9744 321.799,-1132.2011 320.832,-1108.9533 320.1671,-1092.9671 320.3961,-1088.9474 320.832,-1072.9533 321.0765,-1063.9826 321.5448,-1054.1979 322.0401,-1045.4016"/>
<polygon fill="#000000" stroke="#000000" points="325.5419,-1045.4741 322.6443,-1035.2832 318.5544,-1045.0568 325.5419,-1045.4741"/>
<text text-anchor="middle" x="360.332" y="-1094.7533" font-family="Times,serif" font-size="14.00" fill="#000000">Iniciado por</text>
<text text-anchor="middle" x="360.332" y="-1079.7533" font-family="Times,serif" font-size="14.00" fill="#000000">anterior titular</text>
</g>
<!-- CupsCode -->
<g id="node11" class="node">
<title>CupsCode</title>
<ellipse fill="none" stroke="#000000" cx="469.832" cy="-1090.9533" rx="61.1893" ry="18"/>
<text text-anchor="middle" x="469.832" y="-1087.2533" font-family="Times,serif" font-size="14.00" fill="#000000">Código CUPS</text>
</g>
<!-- UserIdentified&#45;&gt;CupsCode -->
<g id="noStartedByOldHolder" class="edge">
<title>UserIdentified&#45;&gt;CupsCode</title>
<path fill="none" stroke="#000000" d="M340.9365,-1183.5402C362.902,-1167.7622 407.7425,-1135.5528 438.2952,-1113.6065"/>
<polygon fill="#000000" stroke="#000000" points="440.4229,-1116.3876 446.5029,-1107.7109 436.3391,-1110.7022 440.4229,-1116.3876"/>
<text text-anchor="middle" x="457.832" y="-1145.7533" font-family="Times,serif" font-size="14.00" fill="#000000">No iniciado por</text>
<text text-anchor="middle" x="457.832" y="-1130.7533" font-family="Times,serif" font-size="14.00" fill="#000000">anterior titular</text>
</g>
<!-- PersonalDataCompleted -->
<g id="node5" class="node">
<title>PersonalDataCompleted</title>
<polygon fill="none" stroke="#ff0000" points="319.832,-875.9533 292.832,-857.9533 319.832,-839.9533 346.832,-857.9533 319.832,-875.9533"/>
</g>
<!-- CupsIdentified&#45;&gt;PersonalDataCompleted -->
<g id="existingVat" class="edge">
<title>CupsIdentified&#45;&gt;PersonalDataCompleted</title>
<path fill="none" stroke="#000000" d="M321.6607,-1001.2579C319.9611,-987.3058 317.7385,-966.871 316.832,-948.9533 316.0235,-932.9738 316.3961,-928.9474 316.832,-912.9533 317.0765,-903.9826 317.5448,-894.1979 318.0401,-885.4016"/>
<polygon fill="#000000" stroke="#000000" points="321.5419,-885.4741 318.6443,-875.2832 314.5544,-885.0568 321.5419,-885.4741"/>
<text text-anchor="middle" x="353.832" y="-927.2533" font-family="Times,serif" font-size="14.00" fill="#000000">NIF existente</text>
</g>
<!-- PersonalData -->
<g id="node10" class="node">
<title>PersonalData</title>
<ellipse fill="none" stroke="#000000" cx="470.832" cy="-930.9533" rx="71.4873" ry="18"/>
<text text-anchor="middle" x="470.832" y="-927.2533" font-family="Times,serif" font-size="14.00" fill="#000000">Datos Personales</text>
</g>
<!-- CupsIdentified&#45;&gt;PersonalData -->
<g id="newVat2" class="edge">
<title>CupsIdentified&#45;&gt;PersonalData</title>
<path fill="none" stroke="#000000" d="M338.1946,-1009.453C360.1563,-996.4553 402.7966,-971.2192 433.8183,-952.8594"/>
<polygon fill="#000000" stroke="#000000" points="435.8112,-955.747 442.6343,-947.6417 432.2459,-949.723 435.8112,-955.747"/>
<text text-anchor="middle" x="435.332" y="-970.7533" font-family="Times,serif" font-size="14.00" fill="#000000">NIF nuevo</text>
</g>
<!-- MembershipSolved -->
<g id="node3" class="node">
<title>MembershipSolved</title>
<polygon fill="none" stroke="#ff0000" points="315.832,-715.9533 288.832,-697.9533 315.832,-679.9533 342.832,-697.9533 315.832,-715.9533"/>
</g>
<!-- CupsDataCompleted -->
<g id="node4" class="node">
<title>CupsDataCompleted</title>
<polygon fill="none" stroke="#ff0000" points="311.832,-555.9533 284.832,-537.9533 311.832,-519.9533 338.832,-537.9533 311.832,-555.9533"/>
</g>
<!-- MembershipSolved&#45;&gt;CupsDataCompleted -->
<g id="existingCups" class="edge">
<title>MembershipSolved&#45;&gt;CupsDataCompleted</title>
<path fill="none" stroke="#000000" d="M313.6607,-681.2579C311.9611,-667.3058 309.7385,-646.871 308.832,-628.9533 308.0235,-612.9738 308.3961,-608.9474 308.832,-592.9533 309.0765,-583.9826 309.5448,-574.1979 310.0401,-565.4016"/>
<polygon fill="#000000" stroke="#000000" points="313.5419,-565.4741 310.6443,-555.2832 306.5544,-565.0568 313.5419,-565.4741"/>
<text text-anchor="middle" x="351.832" y="-607.2533" font-family="Times,serif" font-size="14.00" fill="#000000">CUPS existente</text>
</g>
<!-- CupsData -->
<g id="node13" class="node">
<title>CupsData</title>
<ellipse fill="none" stroke="#000000" cx="497.832" cy="-610.9533" rx="93.6835" ry="18"/>
<text text-anchor="middle" x="497.832" y="-607.2533" font-family="Times,serif" font-size="14.00" fill="#000000">Datos punto suministro</text>
</g>
<!-- MembershipSolved&#45;&gt;CupsData -->
<g id="newCups" class="edge">
<title>MembershipSolved&#45;&gt;CupsData</title>
<path fill="none" stroke="#000000" d="M331.6649,-690.3848C358.5667,-677.5252 414.1143,-650.9722 453.5708,-632.1111"/>
<polygon fill="#000000" stroke="#000000" points="455.2144,-635.2049 462.7271,-627.7342 452.1954,-628.8893 455.2144,-635.2049"/>
<text text-anchor="middle" x="452.332" y="-650.7533" font-family="Times,serif" font-size="14.00" fill="#000000">CUPS nuevo</text>
</g>
<!-- HasSupply -->
<g id="node14" class="node">
<title>HasSupply</title>
<ellipse fill="none" stroke="#000000" cx="239.832" cy="-435.9533" rx="51.9908" ry="18"/>
<text text-anchor="middle" x="239.832" y="-432.2533" font-family="Times,serif" font-size="14.00" fill="#000000">¿Tiene luz?</text>
</g>
<!-- CupsDataCompleted&#45;&gt;HasSupply -->
<g id="noActiveCups" class="edge">
<title>CupsDataCompleted&#45;&gt;HasSupply</title>
<path fill="none" stroke="#000000" d="M298.3624,-528.8118C289.3761,-522.1821 277.7934,-512.5487 269.832,-501.9533 261.1216,-490.3611 254.1754,-475.8364 249.1696,-463.3661"/>
<polygon fill="#000000" stroke="#000000" points="252.3972,-462.0065 245.5744,-453.9009 245.8533,-464.4921 252.3972,-462.0065"/>
<text text-anchor="middle" x="320.832" y="-490.7533" font-family="Times,serif" font-size="14.00" fill="#000000">CUPS sin contrato</text>
<text text-anchor="middle" x="320.832" y="-475.7533" font-family="Times,serif" font-size="14.00" fill="#000000">activo en Som</text>
</g>
<!-- Surrogation -->
<g id="node17" class="node">
<title>Surrogation</title>
<ellipse fill="none" stroke="#000000" cx="412.832" cy="-435.9533" rx="74.9875" ry="18"/>
<text text-anchor="middle" x="412.832" y="-432.2533" font-family="Times,serif" font-size="14.00" fill="#000000">¿Por surrogación?</text>
</g>
<!-- CupsDataCompleted&#45;&gt;Surrogation -->
<g id="isActiveCups" class="edge">
<title>CupsDataCompleted&#45;&gt;Surrogation</title>
<path fill="none" stroke="#000000" d="M328.2811,-530.7459C341.2129,-524.4928 359.1078,-514.4824 371.832,-501.9533 383.2016,-490.758 392.818,-475.8173 399.8738,-462.9827"/>
<polygon fill="#000000" stroke="#000000" points="402.9918,-464.573 404.5474,-454.093 396.7959,-461.3156 402.9918,-464.573"/>
<text text-anchor="middle" x="445.832" y="-490.7533" font-family="Times,serif" font-size="14.00" fill="#000000">CUPS con contrato</text>
<text text-anchor="middle" x="445.832" y="-475.7533" font-family="Times,serif" font-size="14.00" fill="#000000">activo en Som</text>
</g>
<!-- PersonalDataCompleted&#45;&gt;MembershipSolved -->
<g id="isMember" class="edge">
<title>PersonalDataCompleted&#45;&gt;MembershipSolved</title>
<path fill="none" stroke="#000000" d="M317.6607,-841.2579C315.9611,-827.3058 313.7385,-806.871 312.832,-788.9533 312.0235,-772.9738 312.3961,-768.9474 312.832,-752.9533 313.0765,-743.9826 313.5448,-734.1979 314.0401,-725.4016"/>
<polygon fill="#000000" stroke="#000000" points="317.5419,-725.4741 314.6443,-715.2832 310.5544,-725.0568 317.5419,-725.4741"/>
<text text-anchor="middle" x="335.832" y="-767.2533" font-family="Times,serif" font-size="14.00" fill="#000000">Es socia</text>
</g>
<!-- BecomeMember -->
<g id="node12" class="node">
<title>BecomeMember</title>
<ellipse fill="none" stroke="#000000" cx="446.832" cy="-770.9533" rx="79.0865" ry="18"/>
<text text-anchor="middle" x="446.832" y="-767.2533" font-family="Times,serif" font-size="14.00" fill="#000000">¿Quieres ser socia?</text>
</g>
<!-- PersonalDataCompleted&#45;&gt;BecomeMember -->
<g id="notMember" class="edge">
<title>PersonalDataCompleted&#45;&gt;BecomeMember</title>
<path fill="none" stroke="#000000" d="M333.4232,-848.6428C352.2801,-835.7251 386.9994,-811.941 413.0748,-794.0783"/>
<polygon fill="#000000" stroke="#000000" points="415.2792,-796.8108 421.551,-788.2718 411.3231,-791.0358 415.2792,-796.8108"/>
<text text-anchor="middle" x="422.832" y="-810.7533" font-family="Times,serif" font-size="14.00" fill="#000000">No es socia</text>
</g>
<!-- Loading -->
<g id="node6" class="node">
<title>Loading</title>
<ellipse fill="none" stroke="#000000" cx="276.832" cy="-1460.9533" rx="73.387" ry="18"/>
<text text-anchor="middle" x="276.832" y="-1457.2533" font-family="Times,serif" font-size="14.00" fill="#000000">Cargando datos...</text>
</g>
<!-- WelcomeUser -->
<g id="node7" class="node">
<title>WelcomeUser</title>
<ellipse fill="none" stroke="#000000" cx="231.832" cy="-1319.9533" rx="81.4863" ry="18"/>
<text text-anchor="middle" x="231.832" y="-1316.2533" font-family="Times,serif" font-size="14.00" fill="#000000">Bienvenida Usuario</text>
</g>
<!-- Loading&#45;&gt;WelcomeUser -->
<g id="hasSession" class="edge">
<title>Loading&#45;&gt;WelcomeUser</title>
<path fill="none" stroke="#000000" d="M250.1367,-1443.8968C244.0238,-1438.612 238.3072,-1432.2335 234.832,-1424.9533 223.3547,-1400.9097 224.0001,-1370.1126 226.6697,-1348.1006"/>
<polygon fill="#000000" stroke="#000000" points="230.1534,-1348.4622 228.0986,-1338.0685 223.2234,-1347.4751 230.1534,-1348.4622"/>
<text text-anchor="middle" x="265.332" y="-1413.7533" font-family="Times,serif" font-size="14.00" fill="#000000">Con sesión</text>
</g>
<!-- Nif -->
<g id="node8" class="node">
<title>Nif</title>
<ellipse fill="none" stroke="#000000" cx="327.832" cy="-1373.9533" rx="61.99" ry="18"/>
<text text-anchor="middle" x="327.832" y="-1370.2533" font-family="Times,serif" font-size="14.00" fill="#000000">Preguntar NIF</text>
</g>
<!-- Loading&#45;&gt;Nif -->
<g id="noSession" class="edge">
<title>Loading&#45;&gt;Nif</title>
<path fill="none" stroke="#000000" d="M288.5339,-1443.1539C292.2301,-1437.3963 296.2757,-1430.9497 299.832,-1424.9533 304.3742,-1417.2944 309.1085,-1408.8626 313.3639,-1401.0984"/>
<polygon fill="#000000" stroke="#000000" points="316.5777,-1402.5142 318.2719,-1392.0557 310.4255,-1399.175 316.5777,-1402.5142"/>
<text text-anchor="middle" x="335.832" y="-1413.7533" font-family="Times,serif" font-size="14.00" fill="#000000">Sin sesión</text>
</g>
<!-- WelcomeUser&#45;&gt;UserIdentified -->
<g id="edge5" class="edge">
<title>WelcomeUser&#45;&gt;UserIdentified</title>
<path fill="none" stroke="#000000" d="M245.3828,-1302.0267C263.0589,-1278.6427 293.9082,-1237.8316 312.4454,-1213.3085"/>
<polygon fill="#000000" stroke="#000000" points="315.4325,-1215.161 318.6706,-1205.0731 309.8484,-1210.9399 315.4325,-1215.161"/>
</g>
<!-- Nif&#45;&gt;UserIdentified -->
<g id="newVat" class="edge">
<title>Nif&#45;&gt;UserIdentified</title>
<path fill="none" stroke="#000000" d="M327.832,-1355.9366C327.832,-1324.441 327.832,-1259.1442 327.832,-1221.4594"/>
<polygon fill="#000000" stroke="#000000" points="331.3321,-1221.1657 327.832,-1211.1658 324.3321,-1221.1658 331.3321,-1221.1657"/>
<text text-anchor="middle" x="357.332" y="-1262.2533" font-family="Times,serif" font-size="14.00" fill="#000000">NIF nuevo</text>
</g>
<!-- Password -->
<g id="node9" class="node">
<title>Password</title>
<ellipse fill="none" stroke="#000000" cx="491.832" cy="-1265.9533" rx="87.1846" ry="18"/>
<text text-anchor="middle" x="491.832" y="-1262.2533" font-family="Times,serif" font-size="14.00" fill="#000000">Preguntar Contraseña</text>
</g>
<!-- Nif&#45;&gt;Password -->
<g id="existingVat" class="edge">
<title>Nif&#45;&gt;Password</title>
<path fill="none" stroke="#000000" d="M353.0976,-1357.315C381.0214,-1338.9262 426.1616,-1309.1997 457.3294,-1288.6745"/>
<polygon fill="#000000" stroke="#000000" points="459.2972,-1291.5695 465.7239,-1283.1464 455.4472,-1285.7233 459.2972,-1291.5695"/>
<text text-anchor="middle" x="470.832" y="-1316.2533" font-family="Times,serif" font-size="14.00" fill="#000000">NIF existente</text>
</g>
<!-- Password&#45;&gt;UserIdentified -->
<g id="edge6" class="edge">
<title>Password&#45;&gt;UserIdentified</title>
<path fill="none" stroke="#000000" d="M455.0272,-1249.5707C424.0749,-1235.7931 380.6286,-1216.4542 353.3675,-1204.3197"/>
<polygon fill="#000000" stroke="#000000" points="354.6685,-1201.0678 344.1094,-1200.1987 351.8219,-1207.4629 354.6685,-1201.0678"/>
</g>
<!-- PersonalData&#45;&gt;PersonalDataCompleted -->
<g id="edge12" class="edge">
<title>PersonalData&#45;&gt;PersonalDataCompleted</title>
<path fill="none" stroke="#000000" d="M437.6944,-914.9332C409.7969,-901.4463 370.4902,-882.4437 345.0849,-870.1617"/>
<polygon fill="#000000" stroke="#000000" points="346.2883,-866.856 335.7618,-865.6545 343.2415,-873.1581 346.2883,-866.856"/>
</g>
<!-- CupsCode&#45;&gt;CupsIdentified -->
<g id="edge8" class="edge">
<title>CupsCode&#45;&gt;CupsIdentified</title>
<path fill="none" stroke="#000000" d="M438.5113,-1075.293C411.5865,-1061.8306 373.2854,-1042.68 348.4941,-1030.2844"/>
<polygon fill="#000000" stroke="#000000" points="349.9034,-1027.0759 339.3939,-1025.7343 346.7729,-1033.3369 349.9034,-1027.0759"/>
</g>
<!-- BecomeMember&#45;&gt;MembershipSolved -->
<g id="edge15" class="edge">
<title>BecomeMember&#45;&gt;MembershipSolved</title>
<path fill="none" stroke="#000000" d="M416.778,-754.2056C393.3528,-741.1519 361.2719,-723.2748 339.6141,-711.2059"/>
<polygon fill="#000000" stroke="#000000" points="341.1848,-708.0745 330.7458,-706.264 337.7773,-714.1892 341.1848,-708.0745"/>
</g>
<!-- CupsData&#45;&gt;CupsDataCompleted -->
<g id="edge18" class="edge">
<title>CupsData&#45;&gt;CupsDataCompleted</title>
<path fill="none" stroke="#000000" d="M456.5526,-594.7523C420.5903,-580.638 369.499,-560.586 338.6255,-548.469"/>
<polygon fill="#000000" stroke="#000000" points="339.5689,-545.0795 328.9815,-544.684 337.0115,-551.5956 339.5689,-545.0795"/>
</g>
<!-- Technical -->
<g id="node15" class="node">
<title>Technical</title>
<ellipse fill="none" stroke="#000000" cx="72.832" cy="-329.4767" rx="72.6644" ry="37.4533"/>
<text text-anchor="middle" x="72.832" y="-340.7767" font-family="Times,serif" font-size="14.00" fill="#000000">Potencia</text>
<text text-anchor="middle" x="72.832" y="-325.7767" font-family="Times,serif" font-size="14.00" fill="#000000">Tarifa</text>
<text text-anchor="middle" x="72.832" y="-310.7767" font-family="Times,serif" font-size="14.00" fill="#000000">Documentación</text>
</g>
<!-- HasSupply&#45;&gt;Technical -->
<g id="noSupply" class="edge">
<title>HasSupply&#45;&gt;Technical</title>
<path fill="none" stroke="#000000" d="M214.8304,-420.0127C191.8075,-405.3337 156.861,-383.0523 127.3984,-364.2674"/>
<polygon fill="#000000" stroke="#000000" points="129.1641,-361.2423 118.8505,-358.8174 125.4008,-367.1447 129.1641,-361.2423"/>
<text text-anchor="middle" x="201.332" y="-388.7533" font-family="Times,serif" font-size="14.00" fill="#000000">Sin luz</text>
</g>
<!-- NewHolder -->
<g id="node16" class="node">
<title>NewHolder</title>
<ellipse fill="none" stroke="#000000" cx="239.832" cy="-329.4767" rx="76.0865" ry="18"/>
<text text-anchor="middle" x="239.832" y="-325.7767" font-family="Times,serif" font-size="14.00" fill="#000000">¿Titular diferente?</text>
</g>
<!-- HasSupply&#45;&gt;NewHolder -->
<g id="hasSupply" class="edge">
<title>HasSupply&#45;&gt;NewHolder</title>
<path fill="none" stroke="#000000" d="M239.832,-417.891C239.832,-401.4471 239.832,-376.8991 239.832,-357.8389"/>
<polygon fill="#000000" stroke="#000000" points="243.3321,-357.6275 239.832,-347.6276 236.3321,-357.6276 243.3321,-357.6275"/>
<text text-anchor="middle" x="261.332" y="-388.7533" font-family="Times,serif" font-size="14.00" fill="#000000">Con luz</text>
</g>
<!-- VoluntaryCent -->
<g id="node19" class="node">
<title>VoluntaryCent</title>
<ellipse fill="none" stroke="#000000" cx="239.832" cy="-237" rx="87.9851" ry="18"/>
<text text-anchor="middle" x="239.832" y="-233.3" font-family="Times,serif" font-size="14.00" fill="#000000">¿Céntimo voluntario?</text>
</g>
<!-- Technical&#45;&gt;VoluntaryCent -->
<g id="edge22" class="edge">
<title>Technical&#45;&gt;VoluntaryCent</title>
<path fill="none" stroke="#000000" d="M122.4854,-301.981C147.2701,-288.2564 176.844,-271.8797 200.1019,-259.0007"/>
<polygon fill="#000000" stroke="#000000" points="201.9512,-261.9774 209.004,-254.0711 198.5601,-255.8536 201.9512,-261.9774"/>
</g>
<!-- NewHolder&#45;&gt;VoluntaryCent -->
<g id="edge24" class="edge">
<title>NewHolder&#45;&gt;VoluntaryCent</title>
<path fill="none" stroke="#000000" d="M239.832,-311.2062C239.832,-298.1603 239.832,-280.3564 239.832,-265.4578"/>
<polygon fill="#000000" stroke="#000000" points="243.3321,-265.2324 239.832,-255.2325 236.3321,-265.2325 243.3321,-265.2324"/>
</g>
<!-- SwitchDate -->
<g id="node18" class="node">
<title>SwitchDate</title>
<ellipse fill="none" stroke="#000000" cx="440.832" cy="-329.4767" rx="106.6812" ry="18"/>
<text text-anchor="middle" x="440.832" y="-325.7767" font-family="Times,serif" font-size="14.00" fill="#000000">¿Quieres fecha de cambio?</text>
</g>
<!-- Surrogation&#45;&gt;SwitchDate -->
<g id="edge25" class="edge">
<title>Surrogation&#45;&gt;SwitchDate</title>
<path fill="none" stroke="#000000" d="M417.5818,-417.891C421.9463,-401.2941 428.4817,-376.4417 433.5131,-357.3084"/>
<polygon fill="#000000" stroke="#000000" points="436.9005,-358.1889 436.0589,-347.6276 430.1307,-356.4086 436.9005,-358.1889"/>
</g>
<!-- SwitchDate&#45;&gt;VoluntaryCent -->
<g id="edge26" class="edge">
<title>SwitchDate&#45;&gt;VoluntaryCent</title>
<path fill="none" stroke="#000000" d="M403.9655,-312.515C370.4656,-297.1023 320.941,-274.3169 285.0597,-257.8085"/>
<polygon fill="#000000" stroke="#000000" points="286.336,-254.5431 275.7885,-253.543 283.4102,-260.9023 286.336,-254.5431"/>
</g>
<!-- Payment -->
<g id="node20" class="node">
<title>Payment</title>
<ellipse fill="none" stroke="#000000" cx="239.832" cy="-164" rx="61.99" ry="18"/>
<text text-anchor="middle" x="239.832" y="-160.3" font-family="Times,serif" font-size="14.00" fill="#000000">Datos de pago</text>
</g>
<!-- VoluntaryCent&#45;&gt;Payment -->
<g id="edge27" class="edge">
<title>VoluntaryCent&#45;&gt;Payment</title>
<path fill="none" stroke="#000000" d="M239.832,-218.9551C239.832,-210.8828 239.832,-201.1764 239.832,-192.1817"/>
<polygon fill="#000000" stroke="#000000" points="243.3321,-192.0903 239.832,-182.0904 236.3321,-192.0904 243.3321,-192.0903"/>
</g>
<!-- Summary -->
<g id="node21" class="node">
<title>Summary</title>
<ellipse fill="none" stroke="#000000" cx="239.832" cy="-91" rx="77.1866" ry="18"/>
<text text-anchor="middle" x="239.832" y="-87.3" font-family="Times,serif" font-size="14.00" fill="#000000">Resum y signatura</text>
</g>
<!-- Payment&#45;&gt;Summary -->
<g id="edge28" class="edge">
<title>Payment&#45;&gt;Summary</title>
<path fill="none" stroke="#000000" d="M239.832,-145.9551C239.832,-137.8828 239.832,-128.1764 239.832,-119.1817"/>
<polygon fill="#000000" stroke="#000000" points="243.3321,-119.0903 239.832,-109.0904 236.3321,-119.0904 243.3321,-119.0903"/>
</g>
<!-- Error -->
<g id="node22" class="node">
<title>Error</title>
<ellipse fill="none" stroke="#000000" cx="187.832" cy="-18" rx="29.4969" ry="18"/>
<text text-anchor="middle" x="187.832" y="-14.3" font-family="Times,serif" font-size="14.00" fill="#000000">Error</text>
</g>
<!-- Summary&#45;&gt;Error -->
<g id="edge29" class="edge">
<title>Summary&#45;&gt;Error</title>
<path fill="none" stroke="#000000" d="M226.9781,-72.9551C220.5579,-63.9421 212.6864,-52.8918 205.6899,-43.0697"/>
<polygon fill="#000000" stroke="#000000" points="208.4777,-40.9507 199.8251,-34.8365 202.7763,-45.012 208.4777,-40.9507"/>
</g>
<!-- Success -->
<g id="node23" class="node">
<title>Success</title>
<ellipse fill="none" stroke="#000000" cx="291.832" cy="-18" rx="56.59" ry="18"/>
<text text-anchor="middle" x="291.832" y="-14.3" font-family="Times,serif" font-size="14.00" fill="#000000">¡Felicidades!</text>
</g>
<!-- Summary&#45;&gt;Success -->
<g id="edge30" class="edge">
<title>Summary&#45;&gt;Success</title>
<path fill="none" stroke="#000000" d="M252.6859,-72.9551C258.9031,-64.2271 266.4812,-53.5886 273.3079,-44.005"/>
<polygon fill="#000000" stroke="#000000" points="276.3542,-45.761 279.3054,-35.5855 270.6528,-41.6997 276.3542,-45.761"/>
</g>
</g>
</svg>
