<?xml version="1.0" encoding="UTF-8" standalone="no"?>
<!DOCTYPE svg PUBLIC "-//W3C//DTD SVG 1.1//EN"
 "http://www.w3.org/Graphics/SVG/1.1/DTD/svg11.dtd">
<!-- Generated by graphviz version 2.40.1 (20161225.0304)
 -->
<!-- Title: G Pages: 1 -->
<svg width="568pt" height="1508pt"
 viewBox="0.00 0.00 568.42 1507.95" xmlns="http://www.w3.org/2000/svg" xmlns:xlink="http://www.w3.org/1999/xlink">
<g id="graph0" class="graph" transform="scale(1 1) rotate(0) translate(4 1503.9533)">
<title>G</title>
<polygon fill="#ffffff" stroke="transparent" points="-4,4 -4,-1503.9533 564.4237,-1503.9533 564.4237,4 -4,4"/>
<!-- UserIdentified -->
<g id="node1" class="node">
<title>UserIdentified</title>
<polygon fill="none" stroke="#ff0000" points="296.832,-1231.9533 269.832,-1213.9533 296.832,-1195.9533 323.832,-1213.9533 296.832,-1231.9533"/>
</g>
<!-- CupsIdentified -->
<g id="node2" class="node">
<title>CupsIdentified</title>
<polygon fill="none" stroke="#ff0000" points="292.832,-1056.9533 265.832,-1038.9533 292.832,-1020.9533 319.832,-1038.9533 292.832,-1056.9533"/>
</g>
<!-- UserIdentified&#45;&gt;CupsIdentified -->
<g id="startedByOldHolder" class="edge">
<title>UserIdentified&#45;&gt;CupsIdentified</title>
<path fill="none" stroke="#000000" d="M294.9951,-1196.9259C293.2651,-1179.9744 290.799,-1153.2011 289.832,-1129.9533 289.1671,-1113.9671 289.3961,-1109.9474 289.832,-1093.9533 290.0765,-1084.9826 290.5448,-1075.1979 291.0401,-1066.4016"/>
<polygon fill="#000000" stroke="#000000" points="294.5419,-1066.4741 291.6443,-1056.2832 287.5544,-1066.0568 294.5419,-1066.4741"/>
<text text-anchor="middle" x="329.332" y="-1115.7533" font-family="Times,serif" font-size="14.00" fill="#000000">Iniciado por</text>
<text text-anchor="middle" x="329.332" y="-1100.7533" font-family="Times,serif" font-size="14.00" fill="#000000">anterior titular</text>
</g>
<!-- CupsCode -->
<g id="node11" class="node">
<title>CupsCode</title>
<ellipse fill="none" stroke="#000000" cx="438.832" cy="-1111.9533" rx="61.1893" ry="18"/>
<text text-anchor="middle" x="438.832" y="-1108.2533" font-family="Times,serif" font-size="14.00" fill="#000000">Código CUPS</text>
</g>
<!-- UserIdentified&#45;&gt;CupsCode -->
<g id="noStartedByOldHolder" class="edge">
<title>UserIdentified&#45;&gt;CupsCode</title>
<path fill="none" stroke="#000000" d="M309.9365,-1204.5402C331.902,-1188.7622 376.7425,-1156.5528 407.2952,-1134.6065"/>
<polygon fill="#000000" stroke="#000000" points="409.4229,-1137.3876 415.5029,-1128.7109 405.3391,-1131.7022 409.4229,-1137.3876"/>
<text text-anchor="middle" x="426.832" y="-1166.7533" font-family="Times,serif" font-size="14.00" fill="#000000">No iniciado por</text>
<text text-anchor="middle" x="426.832" y="-1151.7533" font-family="Times,serif" font-size="14.00" fill="#000000">anterior titular</text>
</g>
<!-- PersonalDataCompleted -->
<g id="node5" class="node">
<title>PersonalDataCompleted</title>
<polygon fill="none" stroke="#ff0000" points="288.832,-896.9533 261.832,-878.9533 288.832,-860.9533 315.832,-878.9533 288.832,-896.9533"/>
</g>
<!-- CupsIdentified&#45;&gt;PersonalDataCompleted -->
<g id="existingVat" class="edge">
<title>CupsIdentified&#45;&gt;PersonalDataCompleted</title>
<path fill="none" stroke="#000000" d="M290.6607,-1022.2579C288.9611,-1008.3058 286.7385,-987.871 285.832,-969.9533 285.0235,-953.9738 285.3961,-949.9474 285.832,-933.9533 286.0765,-924.9826 286.5448,-915.1979 287.0401,-906.4016"/>
<polygon fill="#000000" stroke="#000000" points="290.5419,-906.4741 287.6443,-896.2832 283.5544,-906.0568 290.5419,-906.4741"/>
<text text-anchor="middle" x="322.832" y="-948.2533" font-family="Times,serif" font-size="14.00" fill="#000000">NIF existente</text>
</g>
<!-- PersonalData -->
<g id="node10" class="node">
<title>PersonalData</title>
<ellipse fill="none" stroke="#000000" cx="439.832" cy="-951.9533" rx="71.4873" ry="18"/>
<text text-anchor="middle" x="439.832" y="-948.2533" font-family="Times,serif" font-size="14.00" fill="#000000">Datos Personales</text>
</g>
<!-- CupsIdentified&#45;&gt;PersonalData -->
<g id="newVat2" class="edge">
<title>CupsIdentified&#45;&gt;PersonalData</title>
<path fill="none" stroke="#000000" d="M307.1946,-1030.453C329.1563,-1017.4553 371.7966,-992.2192 402.8183,-973.8594"/>
<polygon fill="#000000" stroke="#000000" points="404.8112,-976.747 411.6343,-968.6417 401.2459,-970.723 404.8112,-976.747"/>
<text text-anchor="middle" x="404.332" y="-991.7533" font-family="Times,serif" font-size="14.00" fill="#000000">NIF nuevo</text>
</g>
<!-- MembershipSolved -->
<g id="node3" class="node">
<title>MembershipSolved</title>
<polygon fill="none" stroke="#ff0000" points="284.832,-736.9533 257.832,-718.9533 284.832,-700.9533 311.832,-718.9533 284.832,-736.9533"/>
</g>
<!-- CupsDataCompleted -->
<g id="node4" class="node">
<title>CupsDataCompleted</title>
<polygon fill="none" stroke="#ff0000" points="280.832,-576.9533 253.832,-558.9533 280.832,-540.9533 307.832,-558.9533 280.832,-576.9533"/>
</g>
<!-- MembershipSolved&#45;&gt;CupsDataCompleted -->
<g id="existingCups" class="edge">
<title>MembershipSolved&#45;&gt;CupsDataCompleted</title>
<path fill="none" stroke="#000000" d="M282.6607,-702.2579C280.9611,-688.3058 278.7385,-667.871 277.832,-649.9533 277.0235,-633.9738 277.3961,-629.9474 277.832,-613.9533 278.0765,-604.9826 278.5448,-595.1979 279.0401,-586.4016"/>
<polygon fill="#000000" stroke="#000000" points="282.5419,-586.4741 279.6443,-576.2832 275.5544,-586.0568 282.5419,-586.4741"/>
<text text-anchor="middle" x="320.832" y="-628.2533" font-family="Times,serif" font-size="14.00" fill="#000000">CUPS existente</text>
</g>
<!-- CupsData -->
<g id="node13" class="node">
<title>CupsData</title>
<ellipse fill="none" stroke="#000000" cx="466.832" cy="-631.9533" rx="93.6835" ry="18"/>
<text text-anchor="middle" x="466.832" y="-628.2533" font-family="Times,serif" font-size="14.00" fill="#000000">Datos punto suministro</text>
</g>
<!-- MembershipSolved&#45;&gt;CupsData -->
<g id="newCups" class="edge">
<title>MembershipSolved&#45;&gt;CupsData</title>
<path fill="none" stroke="#000000" d="M300.6649,-711.3848C327.5667,-698.5252 383.1143,-671.9722 422.5708,-653.1111"/>
<polygon fill="#000000" stroke="#000000" points="424.2144,-656.2049 431.7271,-648.7342 421.1954,-649.8893 424.2144,-656.2049"/>
<text text-anchor="middle" x="421.332" y="-671.7533" font-family="Times,serif" font-size="14.00" fill="#000000">CUPS nuevo</text>
</g>
<!-- HasSupply -->
<g id="node14" class="node">
<title>HasSupply</title>
<ellipse fill="none" stroke="#000000" cx="218.832" cy="-456.9533" rx="51.9908" ry="18"/>
<text text-anchor="middle" x="218.832" y="-453.2533" font-family="Times,serif" font-size="14.00" fill="#000000">¿Tiene luz?</text>
</g>
<!-- CupsDataCompleted&#45;&gt;HasSupply -->
<g id="noActiveCups" class="edge">
<title>CupsDataCompleted&#45;&gt;HasSupply</title>
<path fill="none" stroke="#000000" d="M262.0126,-553.4321C247.6793,-548.133 228.914,-538.5828 219.832,-522.9533 213.3305,-511.7647 212.37,-497.6051 213.3273,-485.2724"/>
<polygon fill="#000000" stroke="#000000" points="216.8405,-485.3745 214.5712,-475.0256 209.8915,-484.5309 216.8405,-485.3745"/>
<text text-anchor="middle" x="270.832" y="-511.7533" font-family="Times,serif" font-size="14.00" fill="#000000">CUPS sin contrato</text>
<text text-anchor="middle" x="270.832" y="-496.7533" font-family="Times,serif" font-size="14.00" fill="#000000">activo en Som</text>
</g>
<!-- Surrogation -->
<g id="node17" class="node">
<title>Surrogation</title>
<ellipse fill="none" stroke="#000000" cx="343.832" cy="-402.9533" rx="74.9875" ry="18"/>
<text text-anchor="middle" x="343.832" y="-399.2533" font-family="Times,serif" font-size="14.00" fill="#000000">¿Por surrogación?</text>
</g>
<!-- CupsDataCompleted&#45;&gt;Surrogation -->
<g id="isActiveCups" class="edge">
<title>CupsDataCompleted&#45;&gt;Surrogation</title>
<path fill="none" stroke="#000000" d="M295.2243,-550.0259C304.3039,-543.6198 315.4781,-534.1601 321.832,-522.9533 337.9197,-494.5786 342.6132,-456.9169 343.7993,-431.4098"/>
<polygon fill="#000000" stroke="#000000" points="347.3016,-431.3894 344.116,-421.2849 340.305,-431.1706 347.3016,-431.3894"/>
<text text-anchor="middle" x="386.832" y="-511.7533" font-family="Times,serif" font-size="14.00" fill="#000000">CUPS con contrato</text>
<text text-anchor="middle" x="386.832" y="-496.7533" font-family="Times,serif" font-size="14.00" fill="#000000">activo en Som</text>
</g>
<!-- PersonalDataCompleted&#45;&gt;MembershipSolved -->
<g id="isMember" class="edge">
<title>PersonalDataCompleted&#45;&gt;MembershipSolved</title>
<path fill="none" stroke="#000000" d="M286.6607,-862.2579C284.9611,-848.3058 282.7385,-827.871 281.832,-809.9533 281.0235,-793.9738 281.3961,-789.9474 281.832,-773.9533 282.0765,-764.9826 282.5448,-755.1979 283.0401,-746.4016"/>
<polygon fill="#000000" stroke="#000000" points="286.5419,-746.4741 283.6443,-736.2832 279.5544,-746.0568 286.5419,-746.4741"/>
<text text-anchor="middle" x="304.832" y="-788.2533" font-family="Times,serif" font-size="14.00" fill="#000000">Es socia</text>
</g>
<!-- BecomeMember -->
<g id="node12" class="node">
<title>BecomeMember</title>
<ellipse fill="none" stroke="#000000" cx="415.832" cy="-791.9533" rx="79.0865" ry="18"/>
<text text-anchor="middle" x="415.832" y="-788.2533" font-family="Times,serif" font-size="14.00" fill="#000000">¿Quieres ser socia?</text>
</g>
<!-- PersonalDataCompleted&#45;&gt;BecomeMember -->
<g id="notMember" class="edge">
<title>PersonalDataCompleted&#45;&gt;BecomeMember</title>
<path fill="none" stroke="#000000" d="M302.4232,-869.6428C321.2801,-856.7251 355.9994,-832.941 382.0748,-815.0783"/>
<polygon fill="#000000" stroke="#000000" points="384.2792,-817.8108 390.551,-809.2718 380.3231,-812.0358 384.2792,-817.8108"/>
<text text-anchor="middle" x="391.832" y="-831.7533" font-family="Times,serif" font-size="14.00" fill="#000000">No es socia</text>
</g>
<!-- Loading -->
<g id="node6" class="node">
<title>Loading</title>
<ellipse fill="none" stroke="#000000" cx="245.832" cy="-1481.9533" rx="73.387" ry="18"/>
<text text-anchor="middle" x="245.832" y="-1478.2533" font-family="Times,serif" font-size="14.00" fill="#000000">Cargando datos...</text>
</g>
<!-- WelcomeUser -->
<g id="node7" class="node">
<title>WelcomeUser</title>
<ellipse fill="none" stroke="#000000" cx="200.832" cy="-1340.9533" rx="81.4863" ry="18"/>
<text text-anchor="middle" x="200.832" y="-1337.2533" font-family="Times,serif" font-size="14.00" fill="#000000">Bienvenida Usuario</text>
</g>
<!-- Loading&#45;&gt;WelcomeUser -->
<g id="hasSession" class="edge">
<title>Loading&#45;&gt;WelcomeUser</title>
<path fill="none" stroke="#000000" d="M219.1367,-1464.8968C213.0238,-1459.612 207.3072,-1453.2335 203.832,-1445.9533 192.3547,-1421.9097 193.0001,-1391.1126 195.6697,-1369.1006"/>
<polygon fill="#000000" stroke="#000000" points="199.1534,-1369.4622 197.0986,-1359.0685 192.2234,-1368.4751 199.1534,-1369.4622"/>
<text text-anchor="middle" x="234.332" y="-1434.7533" font-family="Times,serif" font-size="14.00" fill="#000000">Con sesión</text>
</g>
<!-- Nif -->
<g id="node8" class="node">
<title>Nif</title>
<ellipse fill="none" stroke="#000000" cx="296.832" cy="-1394.9533" rx="61.99" ry="18"/>
<text text-anchor="middle" x="296.832" y="-1391.2533" font-family="Times,serif" font-size="14.00" fill="#000000">Preguntar NIF</text>
</g>
<!-- Loading&#45;&gt;Nif -->
<g id="noSession" class="edge">
<title>Loading&#45;&gt;Nif</title>
<path fill="none" stroke="#000000" d="M257.5339,-1464.1539C261.2301,-1458.3963 265.2757,-1451.9497 268.832,-1445.9533 273.3742,-1438.2944 278.1085,-1429.8626 282.3639,-1422.0984"/>
<polygon fill="#000000" stroke="#000000" points="285.5777,-1423.5142 287.2719,-1413.0557 279.4255,-1420.175 285.5777,-1423.5142"/>
<text text-anchor="middle" x="304.832" y="-1434.7533" font-family="Times,serif" font-size="14.00" fill="#000000">Sin sesión</text>
</g>
<!-- WelcomeUser&#45;&gt;UserIdentified -->
<g id="edge5" class="edge">
<title>WelcomeUser&#45;&gt;UserIdentified</title>
<path fill="none" stroke="#000000" d="M214.3828,-1323.0267C232.0589,-1299.6427 262.9082,-1258.8316 281.4454,-1234.3085"/>
<polygon fill="#000000" stroke="#000000" points="284.4325,-1236.161 287.6706,-1226.0731 278.8484,-1231.9399 284.4325,-1236.161"/>
</g>
<!-- Nif&#45;&gt;UserIdentified -->
<g id="newVat" class="edge">
<title>Nif&#45;&gt;UserIdentified</title>
<path fill="none" stroke="#000000" d="M296.832,-1376.9366C296.832,-1345.441 296.832,-1280.1442 296.832,-1242.4594"/>
<polygon fill="#000000" stroke="#000000" points="300.3321,-1242.1657 296.832,-1232.1658 293.3321,-1242.1658 300.3321,-1242.1657"/>
<text text-anchor="middle" x="326.332" y="-1283.2533" font-family="Times,serif" font-size="14.00" fill="#000000">NIF nuevo</text>
</g>
<!-- Password -->
<g id="node9" class="node">
<title>Password</title>
<ellipse fill="none" stroke="#000000" cx="460.832" cy="-1286.9533" rx="87.1846" ry="18"/>
<text text-anchor="middle" x="460.832" y="-1283.2533" font-family="Times,serif" font-size="14.00" fill="#000000">Preguntar Contraseña</text>
</g>
<!-- Nif&#45;&gt;Password -->
<g id="existingVat" class="edge">
<title>Nif&#45;&gt;Password</title>
<path fill="none" stroke="#000000" d="M322.0976,-1378.315C350.0214,-1359.9262 395.1616,-1330.1997 426.3294,-1309.6745"/>
<polygon fill="#000000" stroke="#000000" points="428.2972,-1312.5695 434.7239,-1304.1464 424.4472,-1306.7233 428.2972,-1312.5695"/>
<text text-anchor="middle" x="439.832" y="-1337.2533" font-family="Times,serif" font-size="14.00" fill="#000000">NIF existente</text>
</g>
<!-- Password&#45;&gt;UserIdentified -->
<g id="edge6" class="edge">
<title>Password&#45;&gt;UserIdentified</title>
<path fill="none" stroke="#000000" d="M424.0272,-1270.5707C393.0749,-1256.7931 349.6286,-1237.4542 322.3675,-1225.3197"/>
<polygon fill="#000000" stroke="#000000" points="323.6685,-1222.0678 313.1094,-1221.1987 320.8219,-1228.4629 323.6685,-1222.0678"/>
</g>
<!-- PersonalData&#45;&gt;PersonalDataCompleted -->
<g id="edge12" class="edge">
<title>PersonalData&#45;&gt;PersonalDataCompleted</title>
<path fill="none" stroke="#000000" d="M406.6944,-935.9332C378.7969,-922.4463 339.4902,-903.4437 314.0849,-891.1617"/>
<polygon fill="#000000" stroke="#000000" points="315.2883,-887.856 304.7618,-886.6545 312.2415,-894.1581 315.2883,-887.856"/>
</g>
<!-- CupsCode&#45;&gt;CupsIdentified -->
<g id="edge8" class="edge">
<title>CupsCode&#45;&gt;CupsIdentified</title>
<path fill="none" stroke="#000000" d="M407.5113,-1096.293C380.5865,-1082.8306 342.2854,-1063.68 317.4941,-1051.2844"/>
<polygon fill="#000000" stroke="#000000" points="318.9034,-1048.0759 308.3939,-1046.7343 315.7729,-1054.3369 318.9034,-1048.0759"/>
</g>
<!-- BecomeMember&#45;&gt;MembershipSolved -->
<g id="edge15" class="edge">
<title>BecomeMember&#45;&gt;MembershipSolved</title>
<path fill="none" stroke="#000000" d="M385.778,-775.2056C362.3528,-762.1519 330.2719,-744.2748 308.6141,-732.2059"/>
<polygon fill="#000000" stroke="#000000" points="310.1848,-729.0745 299.7458,-727.264 306.7773,-735.1892 310.1848,-729.0745"/>
</g>
<!-- CupsData&#45;&gt;CupsDataCompleted -->
<g id="edge18" class="edge">
<title>CupsData&#45;&gt;CupsDataCompleted</title>
<path fill="none" stroke="#000000" d="M425.5526,-615.7523C389.5903,-601.638 338.499,-581.586 307.6255,-569.469"/>
<polygon fill="#000000" stroke="#000000" points="308.5689,-566.0795 297.9815,-565.684 306.0115,-572.5956 308.5689,-566.0795"/>
</g>
<!-- Technical -->
<g id="node15" class="node">
<title>Technical</title>
<ellipse fill="none" stroke="#000000" cx="72.832" cy="-329.4767" rx="72.6644" ry="37.4533"/>
<text text-anchor="middle" x="72.832" y="-340.7767" font-family="Times,serif" font-size="14.00" fill="#000000">Potencia</text>
<text text-anchor="middle" x="72.832" y="-325.7767" font-family="Times,serif" font-size="14.00" fill="#000000">Tarifa</text>
<text text-anchor="middle" x="72.832" y="-310.7767" font-family="Times,serif" font-size="14.00" fill="#000000">Documentación</text>
</g>
<!-- HasSupply&#45;&gt;Technical -->
<g id="noSupply" class="edge">
<title>HasSupply&#45;&gt;Technical</title>
<path fill="none" stroke="#000000" d="M197.028,-440.4406C189.2842,-434.432 180.5721,-427.5056 172.832,-420.9533 153.6767,-404.7377 133.1235,-386.1541 115.6627,-369.991"/>
<polygon fill="#000000" stroke="#000000" points="117.5816,-366.9962 107.8739,-362.7522 112.8162,-372.1237 117.5816,-366.9962"/>
<text text-anchor="middle" x="192.332" y="-399.2533" font-family="Times,serif" font-size="14.00" fill="#000000">Sin luz</text>
</g>
<!-- NewHolder -->
<g id="node16" class="node">
<title>NewHolder</title>
<ellipse fill="none" stroke="#000000" cx="239.832" cy="-329.4767" rx="76.0865" ry="18"/>
<text text-anchor="middle" x="239.832" y="-325.7767" font-family="Times,serif" font-size="14.00" fill="#000000">¿Titular diferente?</text>
</g>
<!-- HasSupply&#45;&gt;NewHolder -->
<g id="hasSupply" class="edge">
<title>HasSupply&#45;&gt;NewHolder</title>
<path fill="none" stroke="#000000" d="M217.618,-438.6474C217.295,-432.9784 216.9918,-426.71 216.832,-420.9533 216.3881,-404.9595 213.708,-400.6454 216.832,-384.9533 218.7252,-375.4435 222.2783,-365.5217 226.0353,-356.7423"/>
<polygon fill="#000000" stroke="#000000" points="229.331,-357.9501 230.2863,-347.3984 222.9594,-355.0513 229.331,-357.9501"/>
<text text-anchor="middle" x="238.332" y="-399.2533" font-family="Times,serif" font-size="14.00" fill="#000000">Con luz</text>
</g>
<!-- VoluntaryCent -->
<g id="node19" class="node">
<title>VoluntaryCent</title>
<ellipse fill="none" stroke="#000000" cx="239.832" cy="-237" rx="87.9851" ry="18"/>
<text text-anchor="middle" x="239.832" y="-233.3" font-family="Times,serif" font-size="14.00" fill="#000000">¿Céntimo voluntario?</text>
</g>
<!-- Technical&#45;&gt;VoluntaryCent -->
<g id="edge22" class="edge">
<title>Technical&#45;&gt;VoluntaryCent</title>
<path fill="none" stroke="#000000" d="M122.4854,-301.981C147.2701,-288.2564 176.844,-271.8797 200.1019,-259.0007"/>
<polygon fill="#000000" stroke="#000000" points="201.9512,-261.9774 209.004,-254.0711 198.5601,-255.8536 201.9512,-261.9774"/>
</g>
<!-- NewHolder&#45;&gt;VoluntaryCent -->
<g id="edge24" class="edge">
<title>NewHolder&#45;&gt;VoluntaryCent</title>
<path fill="none" stroke="#000000" d="M239.832,-311.2062C239.832,-298.1603 239.832,-280.3564 239.832,-265.4578"/>
<polygon fill="#000000" stroke="#000000" points="243.3321,-265.2324 239.832,-255.2325 236.3321,-265.2325 243.3321,-265.2324"/>
</g>
<!-- Surrogation&#45;&gt;VoluntaryCent -->
<g id="edge25" class="edge">
<title>Surrogation&#45;&gt;VoluntaryCent</title>
<path fill="none" stroke="#000000" d="M344.9953,-384.8322C345.6034,-361.4431 343.5541,-320.3871 324.832,-292 315.616,-278.0263 301.4936,-266.8378 287.3907,-258.2961"/>
<polygon fill="#000000" stroke="#000000" points="289.0774,-255.2289 278.6562,-253.3185 285.6115,-261.3107 289.0774,-255.2289"/>
</g>
<!-- SwitchDate -->
<g id="node18" class="node">
<title>SwitchDate</title>
<ellipse fill="none" stroke="#000000" cx="443.832" cy="-1481.9533" rx="106.6812" ry="18"/>
<text text-anchor="middle" x="443.832" y="-1478.2533" font-family="Times,serif" font-size="14.00" fill="#000000">¿Quieres fecha de cambio?</text>
</g>
<!-- Payment -->
<g id="node20" class="node">
<title>Payment</title>
<ellipse fill="none" stroke="#000000" cx="239.832" cy="-164" rx="61.99" ry="18"/>
<text text-anchor="middle" x="239.832" y="-160.3" font-family="Times,serif" font-size="14.00" fill="#000000">Datos de pago</text>
</g>
<!-- VoluntaryCent&#45;&gt;Payment -->
<g id="edge26" class="edge">
<title>VoluntaryCent&#45;&gt;Payment</title>
<path fill="none" stroke="#000000" d="M239.832,-218.9551C239.832,-210.8828 239.832,-201.1764 239.832,-192.1817"/>
<polygon fill="#000000" stroke="#000000" points="243.3321,-192.0903 239.832,-182.0904 236.3321,-192.0904 243.3321,-192.0903"/>
</g>
<!-- Summary -->
<g id="node21" class="node">
<title>Summary</title>
<ellipse fill="none" stroke="#000000" cx="239.832" cy="-91" rx="77.1866" ry="18"/>
<text text-anchor="middle" x="239.832" y="-87.3" font-family="Times,serif" font-size="14.00" fill="#000000">Resum y signatura</text>
</g>
<!-- Payment&#45;&gt;Summary -->
<g id="edge27" class="edge">
<title>Payment&#45;&gt;Summary</title>
<path fill="none" stroke="#000000" d="M239.832,-145.9551C239.832,-137.8828 239.832,-128.1764 239.832,-119.1817"/>
<polygon fill="#000000" stroke="#000000" points="243.3321,-119.0903 239.832,-109.0904 236.3321,-119.0904 243.3321,-119.0903"/>
</g>
<!-- Error -->
<g id="node22" class="node">
<title>Error</title>
<ellipse fill="none" stroke="#000000" cx="187.832" cy="-18" rx="29.4969" ry="18"/>
<text text-anchor="middle" x="187.832" y="-14.3" font-family="Times,serif" font-size="14.00" fill="#000000">Error</text>
</g>
<!-- Summary&#45;&gt;Error -->
<g id="edge28" class="edge">
<title>Summary&#45;&gt;Error</title>
<path fill="none" stroke="#000000" d="M226.9781,-72.9551C220.5579,-63.9421 212.6864,-52.8918 205.6899,-43.0697"/>
<polygon fill="#000000" stroke="#000000" points="208.4777,-40.9507 199.8251,-34.8365 202.7763,-45.012 208.4777,-40.9507"/>
</g>
<!-- Success -->
<g id="node23" class="node">
<title>Success</title>
<ellipse fill="none" stroke="#000000" cx="291.832" cy="-18" rx="56.59" ry="18"/>
<text text-anchor="middle" x="291.832" y="-14.3" font-family="Times,serif" font-size="14.00" fill="#000000">¡Felicidades!</text>
</g>
<!-- Summary&#45;&gt;Success -->
<g id="edge29" class="edge">
<title>Summary&#45;&gt;Success</title>
<path fill="none" stroke="#000000" d="M252.6859,-72.9551C258.9031,-64.2271 266.4812,-53.5886 273.3079,-44.005"/>
<polygon fill="#000000" stroke="#000000" points="276.3542,-45.761 279.3054,-35.5855 270.6528,-41.6997 276.3542,-45.761"/>
</g>
</g>
</svg>
